<svg width="586" height="585" viewBox="0 0 586 585" fill="none" xmlns="http://www.w3.org/2000/svg">
<path d="M572.826 288.439C582.396 337.271 601.793 436.241 555.376 502.45C472.432 620.76 188.176 615.681 63.6222 462.645C54.9235 451.957 -18.0298 359.361 4.19152 241.6C32.8257 89.8519 203.697 -19.9378 339.309 9.81414C425.099 28.6358 480.018 99.6137 502.303 128.452C511.786 140.723 555.214 198.575 572.826 288.439Z" fill="#F4F7FA"/>
<path d="M120.524 283.827C120.687 283.952 120.85 284.076 121.014 284.2C130.712 291.541 142.606 297.851 157.292 302.077C160.213 302.699 163.134 303.321 166.054 303.942C170.189 297.668 172.998 290.96 164.844 286.098C152.181 278.547 157.924 254.376 163.828 246.801C171.135 237.425 187.7 215.246 168.308 203.265C152.164 193.291 139.708 190.154 144.176 167.256C148.644 144.358 139.868 127.156 119.045 123.334C97.1305 119.311 86.69 86.1568 66.608 91.301C31.6163 100.265 46.9429 157.074 80.732 180.933C114.521 204.793 89.6517 212.865 83.98 231.095C76.2373 255.984 111.714 259.196 118.226 271.383C120.432 275.511 120.93 279.795 120.524 283.827Z" fill="url(#paint0_linear_1431_1919)"/>
<mask id="mask0_1431_1919" style="mask-type:luminance" maskUnits="userSpaceOnUse" x="46" y="90" width="132" height="219">
<path d="M116.022 297.483L163.088 308.96C167.454 302.966 173.952 291.529 164.844 286.098C152.181 278.547 157.924 254.375 163.828 246.801C171.135 237.426 187.7 215.246 168.308 203.265C152.164 193.291 139.707 190.154 144.176 167.256C148.644 144.358 139.868 127.156 119.044 123.334C97.1303 119.311 86.6899 86.1566 66.6079 91.3007C31.6164 100.264 46.9428 157.073 80.7321 180.933C114.521 204.792 89.6516 212.864 83.9801 231.095C76.2374 255.983 111.714 259.196 118.226 271.383C123.331 280.937 119.315 291.331 116.022 297.483Z" fill="white"/>
</mask>
<g mask="url(#mask0_1431_1919)">
<g opacity="0.5">
<path d="M139.987 295.484L141.036 295.532C144.474 218.861 110.684 140.898 52.8538 92.0662L52.1768 92.8682C109.764 141.494 143.411 219.132 139.987 295.484Z" fill="#FCFDFE"/>
<path d="M138.281 253.523L139.3 253.776C146.574 224.505 177.304 207.916 177.613 207.752L177.122 206.825C176.808 206.991 145.671 223.79 138.281 253.523Z" fill="#FCFDFE"/>
<path d="M140.236 281.363L141.253 281.102C133.653 251.483 80.6512 234.387 80.1167 234.217L79.7998 235.218C80.3286 235.386 132.781 252.307 140.236 281.363Z" fill="#FCFDFE"/>
<path d="M117.856 181.123L118.892 180.951C114.891 157.025 137.246 127.295 137.473 126.997L136.637 126.362C136.408 126.663 113.781 156.756 117.856 181.123Z" fill="#FCFDFE"/>
<path d="M93.9023 138.674L94.6518 137.939C75.2894 118.213 37.9647 117.176 37.5893 117.169L37.5664 118.218C37.9369 118.226 74.8415 119.256 93.9023 138.674Z" fill="#FCFDFE"/>
</g>
</g>
<mask id="mask1_1431_1919" style="mask-type:luminance" maskUnits="userSpaceOnUse" x="55" y="22" width="157" height="312">
<path d="M183.426 333.841L131.37 333.664C131.37 333.664 121.661 306.928 134.482 288.126C160.641 249.764 125.216 229.531 111.647 218.837C91.1835 202.709 80.1838 179.573 110.387 169.619C140.589 159.665 110.431 112.807 73.6289 91.5244C37.6152 70.6979 53.8556 -5.33829 135.942 32.5811C184.964 55.2265 177.097 107.256 179.37 134.475C181.644 161.694 222.106 164.083 208.143 197.277C196.216 225.631 173.667 246.259 190.755 265.838C207.843 285.417 209.544 307.31 183.426 333.841Z" fill="white"/>
</mask>
<g mask="url(#mask1_1431_1919)">
<path d="M183.425 333.841L131.37 333.665C131.37 333.665 121.661 306.928 134.482 288.126C160.641 249.764 125.216 229.531 111.647 218.837C91.1833 202.71 82.2122 181.931 106.932 168.556C134.902 153.423 110.431 112.807 73.6289 91.5247C37.6152 70.6981 53.8556 -5.33804 135.942 32.5813C184.964 55.2267 177.097 107.256 179.37 134.475C181.644 161.694 222.106 164.083 208.143 197.277C196.216 225.631 173.667 246.259 190.755 265.838C207.843 285.417 209.544 307.31 183.425 333.841Z" fill="url(#paint1_linear_1431_1919)"/>
</g>
<mask id="mask2_1431_1919" style="mask-type:luminance" maskUnits="userSpaceOnUse" x="55" y="22" width="157" height="312">
<path d="M183.426 333.841L131.37 333.664C131.37 333.664 121.661 306.928 134.482 288.126C160.641 249.764 125.216 229.531 111.647 218.837C91.1835 202.709 80.1838 179.573 110.387 169.619C140.589 159.665 110.431 112.807 73.6289 91.5244C37.6152 70.6979 53.8556 -5.33829 135.942 32.5811C184.964 55.2265 177.097 107.256 179.37 134.475C181.644 161.694 222.106 164.083 208.143 197.277C196.216 225.631 173.667 246.259 190.755 265.838C207.843 285.417 209.544 307.31 183.426 333.841Z" fill="white"/>
</mask>
<g mask="url(#mask2_1431_1919)">
<g opacity="0.5">
<path d="M160.878 338.597L159.798 338.395C159.923 337.726 172.196 270.693 164.325 200.572C157.075 135.971 130.746 55.4553 46.4912 38.7328L46.7051 37.6548C84.2113 45.0986 113.554 65.5829 133.919 98.5383C150.187 124.864 160.786 159.159 165.42 200.471C173.304 270.753 161.003 337.926 160.878 338.597Z" fill="#BEB8F2"/>
<path d="M141.832 112.677L140.742 112.537C145.384 76.2557 131.731 24.6503 131.593 24.1333L132.654 23.8486C132.793 24.3681 146.501 76.1829 141.832 112.677Z" fill="#BEB8F2"/>
<path d="M127.662 91.0909C90.7465 67.9166 56.1456 78.8586 55.8007 78.9718L55.458 77.9281C55.8082 77.8127 90.8782 66.702 128.247 90.1602L127.662 91.0909Z" fill="#BEB8F2"/>
<path d="M166.972 246.695C154.86 194.841 84.435 181.895 83.7383 181.826L83.7744 180.729C84.4645 180.731 155.823 194.131 168.042 246.445L166.972 246.695Z" fill="#BEB8F2"/>
<path d="M167.389 224.741L166.313 224.514C173.346 191.27 209.509 168.502 209.874 168.276L210.453 169.21C210.093 169.434 174.322 191.962 167.389 224.741Z" fill="#BEB8F2"/>
<path d="M161.497 327.804C159.981 307.632 131.243 291.566 130.953 291.406L131.483 290.444C132.689 291.108 161.032 306.955 162.593 327.722L161.497 327.804Z" fill="#BEB8F2"/>
<path d="M164.618 311.968L163.535 311.78C166.281 296.023 190.172 278.54 198.022 272.796C199.132 271.984 200.09 271.283 200.236 271.124L201.054 271.857C200.851 272.084 200.216 272.552 198.671 273.682C190.909 279.362 167.287 296.648 164.618 311.968Z" fill="#BEB8F2"/>
</g>
</g>
<path d="M419.877 304.209C425.606 316.583 420.146 328.96 414.906 337.29C413.656 337.297 412.93 337.644 411.667 337.951C400.271 340.724 394.925 339.313 383.339 340.152C380.846 340.332 373.437 338.474 370.461 337.504L364.942 335.601C364.942 335.601 355.147 305.504 370.538 297.191C385.929 288.877 380.036 258.924 378.746 242.588C375.245 198.265 423.143 202.294 423.197 144.977C423.211 129.732 418.141 100.655 430.994 88.5131C445.636 74.6797 456.326 88.2498 465.741 76.682C480.457 58.6019 504.336 52.1159 518.57 70.723C532.619 89.0871 515.549 125.644 473.113 155.025C445.058 179.552 444.619 186.895 446.827 204.776C448.374 217.301 460.321 249.928 443.321 262.957C426.32 275.986 413.327 290.064 419.877 304.209Z" fill="url(#paint2_linear_1431_1919)"/>
<mask id="mask3_1431_1919" style="mask-type:luminance" maskUnits="userSpaceOnUse" x="362" y="59" width="162" height="289">
<path d="M407.509 347.421L365.871 336.696C365.871 336.696 355.147 305.505 370.538 297.192C385.929 288.879 380.036 258.925 378.746 242.59C375.245 198.266 423.143 202.295 423.197 144.978C423.211 129.733 418.141 100.656 430.994 88.5143C445.637 74.6811 456.326 88.2509 465.741 76.6831C480.457 58.603 504.336 52.1173 518.571 70.7241C532.619 89.0883 515.549 125.645 473.114 155.026C445.058 179.553 444.619 186.896 446.828 204.777C448.374 217.302 460.321 249.93 443.321 262.958C426.321 275.987 413.327 290.065 419.877 304.211C429.843 325.734 407.509 347.421 407.509 347.421Z" fill="white"/>
</mask>
<g mask="url(#mask3_1431_1919)">
<g opacity="0.5">
<path d="M389.371 340.62L388.525 340.514C389.154 335.475 389.849 330.4 390.594 325.43C396.105 288.639 404.852 253.693 416.591 221.564C426.538 194.339 438.768 168.751 452.941 145.511C464.339 126.821 477.049 109.54 490.719 94.1496C500.33 83.3303 510.311 73.549 520.387 65.0789C522.143 63.6024 524.021 62.1908 525.837 60.8255C528.257 59.0067 530.759 57.1258 532.991 55.0769L533.567 55.7051C531.305 57.7822 528.786 59.6759 526.35 61.5072C524.542 62.8657 522.673 64.2704 520.936 65.7316C510.891 74.1754 500.939 83.927 491.357 94.7159C477.72 110.068 465.04 127.308 453.669 145.955C439.525 169.148 427.32 194.685 417.392 221.856C405.672 253.931 396.94 288.822 391.437 325.556C390.693 330.519 389.998 335.587 389.371 340.62Z" fill="#FCFDFE"/>
<path d="M437.595 174.94L436.823 174.578C452.364 141.456 438.718 80.2622 438.578 79.6481L439.409 79.4587C439.549 80.076 453.26 141.552 437.595 174.94Z" fill="#FCFDFE"/>
<path d="M402.245 271.407L401.437 271.138C409.364 247.392 453.818 229.063 454.266 228.88L454.588 229.67C454.143 229.851 410.049 248.033 402.245 271.407Z" fill="#FCFDFE"/>
<path d="M398.913 285.269L398.069 285.146C400.421 268.975 394.989 245.665 382.772 219.51C382.158 218.195 382.158 218.195 382.179 218.035L383.024 218.147L382.601 218.091L383.013 217.985C383.043 218.077 383.275 218.574 383.544 219.149C395.831 245.453 401.289 268.934 398.913 285.269Z" fill="#FCFDFE"/>
<path d="M390.647 331.438L389.874 331.079C397.453 314.754 423.361 308.311 423.621 308.248L423.822 309.076C423.565 309.139 398.053 315.487 390.647 331.438Z" fill="#FCFDFE"/>
<path d="M388.082 340.686C384.87 326.531 377.489 312.837 365.517 298.819L366.165 298.265C378.229 312.391 385.67 326.205 388.913 340.497L388.082 340.686Z" fill="#FCFDFE"/>
<path d="M483.454 103.913L482.704 103.509C492.371 85.5749 498.369 64.4932 500.34 57.5658C500.818 55.8888 500.987 55.2992 501.082 55.104L501.848 55.4769C501.778 55.6269 501.505 56.5856 501.16 57.7993C499.183 64.7489 493.165 85.8977 483.454 103.913Z" fill="#FCFDFE"/>
<path d="M463.422 130.747L462.824 130.139C476.44 116.737 514.646 117.166 516.266 117.191L516.252 118.043C515.859 118.037 476.783 117.595 463.422 130.747Z" fill="#FCFDFE"/>
</g>
</g>
<mask id="mask4_1431_1919" style="mask-type:luminance" maskUnits="userSpaceOnUse" x="343" y="137" width="217" height="290">
<path d="M352.272 411.403L401.946 426.973C401.946 426.973 419.283 404.423 412.747 382.624C399.41 338.149 439.294 329.573 455.461 323.482C479.843 314.296 497.323 295.567 471.543 276.948C445.763 258.329 488.676 222.782 530.191 213.621C570.816 204.658 578.324 127.27 488.615 138.597C435.041 145.362 426.809 197.335 416.413 222.593C406.016 247.851 366.725 237.895 369.999 273.757C372.796 304.39 388.054 330.87 365.845 344.367C343.637 357.863 335.397 378.218 352.272 411.403Z" fill="white"/>
</mask>
<g mask="url(#mask4_1431_1919)">
<path d="M352.272 411.403L401.946 426.973C401.946 426.973 419.283 404.422 412.747 382.624C399.41 338.149 439.294 329.573 455.461 323.482C479.843 314.296 494.676 297.202 475.157 276.979C453.072 254.099 488.676 222.781 530.191 213.621C570.816 204.657 578.324 127.269 488.615 138.597C435.041 145.362 426.809 197.335 416.413 222.593C406.016 247.851 366.725 237.895 369.999 273.757C372.796 304.39 388.054 330.87 365.845 344.366C343.637 357.863 335.397 378.217 352.272 411.403Z" fill="url(#paint3_linear_1431_1919)"/>
</g>
<mask id="mask5_1431_1919" style="mask-type:luminance" maskUnits="userSpaceOnUse" x="343" y="137" width="217" height="290">
<path d="M352.272 411.403L401.946 426.973C401.946 426.973 419.283 404.423 412.747 382.624C399.41 338.149 439.294 329.573 455.461 323.482C479.843 314.296 497.323 295.567 471.543 276.948C445.763 258.329 488.676 222.782 530.191 213.621C570.816 204.658 578.324 127.27 488.615 138.597C435.041 145.362 426.809 197.335 416.413 222.593C406.016 247.851 366.725 237.895 369.999 273.757C372.796 304.39 388.054 330.87 365.845 344.367C343.637 357.863 335.397 378.218 352.272 411.403Z" fill="white"/>
</mask>
<g mask="url(#mask5_1431_1919)">
<g opacity="0.5">
<path d="M372.322 422.752L373.413 422.887C373.496 422.211 382.064 354.604 410.766 290.145C437.208 230.76 486.647 161.971 572.015 171.504L572.137 170.412C534.135 166.168 499.973 176.823 470.598 202.079C447.132 222.254 426.661 251.74 409.753 289.718C380.989 354.326 372.406 422.076 372.322 422.752Z" fill="#BEB8F2"/>
<path d="M458.782 213.163L459.864 213.359C466.408 177.373 495.024 132.31 495.312 131.859L494.386 131.267C494.097 131.72 465.365 176.965 458.782 213.163Z" fill="#BEB8F2"/>
<path d="M478.814 196.871C521.009 185.942 550.683 206.833 550.977 207.046L551.619 206.154C551.32 205.938 521.251 184.745 478.539 195.807L478.814 196.871Z" fill="#BEB8F2"/>
<path d="M394.299 333.309C421.52 287.543 492.564 296.494 493.249 296.64L493.546 295.583C492.888 295.377 420.818 286.575 393.354 332.747L394.299 333.309Z" fill="#BEB8F2"/>
<path d="M400.54 312.257L401.634 312.365C404.981 278.551 377.393 245.915 377.114 245.59L376.279 246.304C376.556 246.627 403.841 278.915 400.54 312.257Z" fill="#BEB8F2"/>
<path d="M374.995 412.278C382.539 393.509 414.789 386.883 415.114 386.818L414.899 385.74C413.549 386.009 381.742 392.545 373.976 411.868L374.995 412.278Z" fill="#BEB8F2"/>
<path d="M376.81 396.24L377.9 396.388C380.046 380.538 362.559 356.651 356.812 348.801C356 347.692 355.299 346.734 355.208 346.539L354.206 346.991C354.331 347.268 354.795 347.906 355.926 349.451C361.607 357.212 378.898 380.83 376.81 396.24Z" fill="#BEB8F2"/>
</g>
</g>
<path d="M399.287 423.985C399.101 424.072 398.915 424.158 398.728 424.244C387.681 429.331 374.708 432.939 359.457 433.911C356.471 433.891 353.485 433.871 350.499 433.851C347.808 426.835 346.506 419.68 355.514 416.683C369.503 412.029 369.086 387.188 364.948 378.521C359.825 367.795 348.411 342.575 369.924 335.04C387.834 328.766 400.673 328.379 401.228 305.055C401.783 281.732 414.049 266.817 435.208 267.556C457.475 268.335 474.793 238.198 493.301 247.535C525.551 263.806 498.379 315.997 460.253 332.041C422.127 348.085 444.682 361.311 446.305 380.335C448.521 406.305 413.182 401.822 404.205 412.326C401.164 415.883 399.757 419.96 399.287 423.985Z" fill="url(#paint4_linear_1431_1919)"/>
<mask id="mask6_1431_1919" style="mask-type:luminance" maskUnits="userSpaceOnUse" x="349" y="245" width="159" height="195">
<path d="M400.754 438.289L352.323 439.388C349.346 432.596 345.456 420.03 355.518 416.682C369.507 412.028 369.091 387.187 364.952 378.521C359.83 367.795 348.416 342.574 369.929 335.039C387.839 328.766 400.678 328.378 401.233 305.055C401.788 281.731 414.053 266.816 435.213 267.556C457.479 268.334 474.798 238.197 493.306 247.535C525.555 263.805 498.383 315.996 460.258 332.04C422.132 348.085 444.687 361.31 446.31 380.334C448.526 406.304 413.187 401.821 404.209 412.325C397.171 420.559 398.86 431.573 400.754 438.289Z" fill="white"/>
</mask>
<g mask="url(#mask6_1431_1919)">
<g opacity="0.5">
<path d="M377.776 431.19L376.741 431.01C389.853 355.391 439.601 286.506 506.572 251.237L507.061 252.166C440.373 287.287 390.833 355.885 377.776 431.19Z" fill="#FCFDFE"/>
<path d="M388.458 390.574L387.408 390.602C386.592 360.452 360.143 337.649 359.876 337.422L360.556 336.622C360.826 336.852 387.628 359.948 388.458 390.574Z" fill="#FCFDFE"/>
<path d="M380.569 417.344L379.632 416.871C393.417 389.576 448.854 384.264 449.412 384.213L449.507 385.259C448.954 385.309 394.092 390.568 380.569 417.344Z" fill="#FCFDFE"/>
<path d="M423.959 324.253L422.985 323.862C432.032 301.354 416.585 267.516 416.428 267.177L417.38 266.735C417.539 267.078 433.174 301.33 423.959 324.253Z" fill="#FCFDFE"/>
<path d="M456.471 287.941L455.897 287.062C479.045 271.956 515.721 278.961 516.089 279.034L515.886 280.064C515.523 279.991 479.258 273.07 456.471 287.941Z" fill="#FCFDFE"/>
</g>
</g>
<path d="M421.062 22.736V532.662C421.062 540.287 414.548 541.929 407.16 542.17L153.96 555.265L150.124 555.39C142.253 555.648 135.802 549.403 135.802 541.513V13.8851C135.802 5.99489 142.253 -0.249796 150.124 0.00768519L155.329 0.177917L409.457 19.9431C416.844 20.1848 421.062 15.1104 421.062 22.736Z" fill="url(#paint5_linear_1431_1919)"/>
<path d="M428.951 22.736V532.662C428.951 540.287 422.916 546.724 415.529 546.966L158.012 555.39C150.141 555.648 143.69 549.403 143.69 541.513V13.8851C143.69 5.99489 150.141 -0.249796 158.012 0.00768519L415.529 8.43213C422.916 8.67379 428.951 15.1104 428.951 22.736Z" fill="url(#paint6_linear_1431_1919)"/>
<path d="M420.614 50.769V523.155C420.614 530.274 414.975 536.276 408.073 536.493L165.925 544.1C158.598 544.33 152.594 538.504 152.594 531.152V43.3748C152.594 36.0233 158.598 30.1836 165.925 30.3973L408.073 37.4586C414.975 37.6599 420.614 43.6496 420.614 50.769Z" fill="url(#paint7_linear_1431_1919)"/>
<path d="M293.537 20.0904C293.537 22.7774 291.396 24.8909 288.754 24.8109C286.111 24.731 283.967 22.4853 283.967 19.7954C283.967 17.1053 286.111 14.9921 288.754 15.0751C291.396 15.1579 293.537 17.4034 293.537 20.0904Z" fill="#DE8BDF"/>
<path d="M383.038 337.641L189.646 340.235C187.201 340.268 185.217 338.31 185.217 335.862V293.516C185.217 291.068 187.2 289.071 189.646 289.054L383.038 287.746C385.361 287.73 387.242 289.65 387.242 292.033V333.269C387.242 335.653 385.36 337.61 383.038 337.641Z" fill="#F4F7FA"/>
<path d="M382.598 415.643L190.108 420.224C187.408 420.288 185.217 418.149 185.217 415.446V374.025C185.217 371.322 187.408 369.093 190.108 369.047L382.598 365.745C385.164 365.701 387.242 367.799 387.242 370.432V410.766C387.242 413.399 385.164 415.582 382.598 415.643Z" fill="#F4F7FA"/>
<path d="M363.508 161.211C363.508 203.715 329.697 238.177 287.569 238.184C244.968 238.191 210.082 203.037 210.082 159.666C210.082 116.295 244.968 81.844 287.569 82.7085C329.697 83.5636 363.508 118.706 363.508 161.211Z" fill="white"/>
<path d="M318.883 137.41C318.883 154.924 304.899 168.99 287.593 168.828C270.223 168.665 256.096 154.241 256.096 136.611C256.096 118.982 270.223 104.917 287.593 105.196C304.899 105.475 318.883 119.897 318.883 137.41Z" fill="url(#paint8_linear_1431_1919)"/>
<path d="M287.569 238.186C306.191 238.183 323.178 231.45 336.331 220.297C331.855 197.143 311.791 179.534 287.569 179.351C263.192 179.166 242.76 196.674 238.173 220.08C251.623 231.398 268.855 238.189 287.569 238.186Z" fill="url(#paint9_linear_1431_1919)"/>
<path d="M314.191 319.628L208.643 320.78C205.053 320.819 202.112 317.903 202.112 314.3C202.112 310.697 205.053 307.722 208.643 307.689L314.191 306.717C317.68 306.685 320.533 309.561 320.533 313.109C320.533 316.656 317.68 319.59 314.191 319.628Z" fill="url(#paint10_linear_1431_1919)"/>
<path d="M217.902 393.952C217.902 398.555 214.184 402.367 209.593 402.466C204.996 402.565 201.266 398.906 201.266 394.292C201.266 389.679 204.996 385.867 209.593 385.777C214.184 385.689 217.902 389.348 217.902 393.952Z" fill="url(#paint11_linear_1431_1919)"/>
<path d="M249.022 393.314C249.022 397.899 245.334 401.695 240.78 401.793C236.221 401.891 232.521 398.246 232.521 393.652C232.521 389.057 236.221 385.26 240.78 385.172C245.334 385.084 249.022 388.729 249.022 393.314Z" fill="url(#paint12_linear_1431_1919)"/>
<path d="M279.891 392.683C279.891 397.249 276.233 401.029 271.716 401.127C267.194 401.224 263.523 397.594 263.523 393.017C263.523 388.441 267.194 384.66 271.716 384.573C276.233 384.486 279.891 388.116 279.891 392.683Z" fill="url(#paint13_linear_1431_1919)"/>
<path d="M310.509 392.057C310.509 396.604 306.88 400.369 302.399 400.466C297.913 400.563 294.272 396.946 294.272 392.389C294.272 387.831 297.913 384.066 302.399 383.979C306.88 383.892 310.509 387.509 310.509 392.057Z" fill="url(#paint14_linear_1431_1919)"/>
<path d="M340.889 391.435C340.889 395.964 337.289 399.714 332.844 399.81C328.394 399.905 324.782 396.304 324.782 391.764C324.782 387.225 328.394 383.475 332.844 383.389C337.289 383.302 340.889 386.905 340.889 391.435Z" fill="url(#paint15_linear_1431_1919)"/>
<path d="M287.56 240.072C266.43 240.072 246.527 231.708 231.511 216.519C216.478 201.312 208.198 181.122 208.198 159.667C208.198 138.032 216.598 117.885 231.851 102.939C246.839 88.2518 266.635 80.3924 287.61 80.8229C308.466 81.2464 328.03 89.8435 342.696 105.031C357.335 120.19 365.397 140.142 365.397 161.212C365.397 182.289 357.331 202.087 342.684 216.959C328.008 231.86 308.436 240.069 287.572 240.072C287.568 240.072 287.564 240.072 287.56 240.072ZM285.995 84.5805C266.619 84.5805 248.384 92.0219 234.492 105.635C219.97 119.865 211.972 139.054 211.972 159.667C211.972 180.122 219.865 199.37 234.196 213.867C248.495 228.332 267.449 236.298 287.56 236.299C287.565 236.299 287.567 236.299 287.572 236.299C328.404 236.292 361.624 202.608 361.624 161.212C361.624 119.795 328.387 85.4252 287.534 84.5961C287.021 84.5855 286.506 84.5805 285.995 84.5805Z" fill="white"/>
<path opacity="0.3" d="M430.215 22.4447C430.215 14.8776 424.211 8.67467 416.648 8.42734L276.216 3.83325C328.306 59.0345 340.018 105.348 341.355 136.997C345.171 227.336 267.346 266.695 281.817 365.491C285.784 392.576 294.557 409.585 297.984 456.372C300.905 496.26 297.851 529.275 294.809 550.956L416.794 546.965C424.181 546.724 430.215 540.287 430.215 532.661L430.215 22.4447Z" fill="url(#paint16_linear_1431_1919)"/>
<path opacity="0.3" d="M221.024 276.947C222.504 233.432 207.594 215.24 203.642 210.784C200.851 207.636 198.266 205.407 178.97 189.477C164.635 177.642 152.687 167.831 144.207 160.881C144.034 282.785 143.862 404.69 143.689 526.594C149.467 479.803 160.57 444.515 169.018 421.982C192.667 358.906 219.124 332.782 221.024 276.947Z" fill="url(#paint17_linear_1431_1919)"/>
<path d="M9.63831 263.894C6.41422 254.423 8.6723 243.535 13.648 235.925C22.0565 223.066 33.0158 227.535 43.9925 213.275C51.093 204.05 57.5548 196.173 65.4389 190.273C71.2389 185.932 84.9633 181.016 90.3247 184.428C106.367 194.64 76.9333 281.587 44.4825 286.536C31.4981 288.516 14.4848 278.13 9.63831 263.894Z" fill="url(#paint18_linear_1431_1919)"/>
<path d="M71.1936 538.458C72.0498 540.286 73.0172 542.963 73.2727 546.295C73.3847 547.755 73.3399 549.079 73.2234 550.226C72.2817 551.614 67.879 556.381 61.9334 557.557C58.2552 558.285 52.2923 555.167 59.0471 550.946C65.8019 546.726 66.8115 545.71 64.8261 534.922C64.3154 532.146 64.5161 531.131 64.9519 530.935C65.9701 530.479 68.8712 534.736 71.1936 538.458Z" fill="url(#paint19_linear_1431_1919)"/>
<path d="M102.345 546.699C103.201 548.527 104.169 551.204 104.424 554.535C104.536 555.995 104.491 557.319 104.375 558.467C103.433 559.855 99.0305 564.621 93.0847 565.798C89.4065 566.526 83.4436 563.407 90.1986 559.187C96.9534 554.966 97.963 553.95 95.9776 543.162C95.4669 540.387 95.6676 539.371 96.1034 539.176C97.1216 538.72 100.022 542.977 102.345 546.699Z" fill="url(#paint20_linear_1431_1919)"/>
<path d="M134.742 321.313C136.975 334.913 139.209 348.513 141.442 362.113C136.551 374.979 132.002 388.997 128.148 404.136C114.227 458.823 105.546 511.494 104.911 549.223C101.847 550.332 98.7824 551.44 95.718 552.549C90.2271 531.816 91.8862 500.465 87.0044 463.497C81.2369 419.82 85.1588 385.676 83.1509 385.556C81.2266 385.441 75.8371 416.7 75.8274 452.397C75.8171 490.132 71.4766 520.513 74.2742 542.323C70.6025 542.542 66.931 542.762 63.2593 542.981C53.0915 514.138 48.6488 479.773 43.5012 434.334C39.9265 402.779 35.7076 360.859 56.789 317.61C58.8941 313.291 66.2434 303.704 67.6213 301.335C91.7963 305.961 110.567 316.688 134.742 321.313Z" fill="url(#paint21_linear_1431_1919)"/>
<path opacity="0.25" d="M128.148 404.136C132.002 388.996 136.55 374.978 141.442 362.113C139.208 348.513 136.975 334.912 134.742 321.313C110.567 316.687 91.7957 305.961 67.6209 301.335C66.243 303.704 58.8937 313.291 56.7886 317.61C49.6822 332.189 45.4588 346.615 43.1084 360.546C89.8791 360.035 103.414 369.775 107.141 378.752C113.073 393.044 95.0316 407.536 101.415 436.459C103.334 445.157 106.201 449.443 106.538 460.339C106.98 474.639 102.313 476.025 101.582 490.571C100.782 506.486 95.2702 522.04 97.8545 533.321C99.4613 540.335 101.343 546.037 102.789 549.991C103.496 549.735 104.203 549.479 104.911 549.223C105.546 511.493 114.226 458.823 128.148 404.136Z" fill="url(#paint22_linear_1431_1919)"/>
<path d="M114.704 132.581C116.203 134.586 113.975 137.274 113.531 147.062C113.327 151.54 113.597 155.294 113.899 157.961C113.984 160.373 114.12 162.61 114.309 164.586C114.447 166.036 114.594 167.169 114.803 168.375C115.188 170.612 115.742 172.83 116.446 174.968C116.492 175.11 116.423 175.261 116.288 175.32C116.28 175.323 116.272 175.326 116.264 175.329C116.114 175.378 115.953 175.297 115.904 175.147C115.191 172.983 114.631 170.737 114.24 168.473C114.029 167.252 113.88 166.105 113.74 164.64C113.641 163.599 113.557 162.481 113.486 161.31C113.166 164.395 113.1 167.803 114.197 172.354C117.527 186.167 106.805 195.259 98.3552 195.624C88.6103 196.046 82.0046 188.324 79.9618 185.797C71.7279 175.611 70.1428 159.013 77.8868 146.873C88.031 130.969 111.028 127.67 114.704 132.581Z" fill="url(#paint23_linear_1431_1919)"/>
<path d="M90.0629 145.879C90.4799 144.335 92.3656 138.04 98.1276 134.093C109.06 126.605 126.584 132.614 136.631 141.432C147.145 150.658 142.773 157.042 153.107 167.287C164.332 178.415 172.209 173.555 187.811 184.304C193.947 188.532 210.486 199.927 211.591 217.702C212.546 233.062 201.683 248.443 188.392 254.378C165.636 264.537 137.14 246.394 123.695 229.709C110.799 213.706 119.5 209.789 101.166 178.882C94.5367 167.708 86.9474 157.416 90.0629 145.879Z" fill="url(#paint24_linear_1431_1919)"/>
<path d="M73.6627 190.68C65.3505 199.095 63.1123 209.212 62.4573 213.733C60.42 227.798 65.9444 239.271 67.2417 242.285C73.3713 256.524 71.1135 284.589 35.3828 345.025C38.7792 347.856 50.4894 368.812 56.028 358.763C63.5792 345.062 97.8365 248.66 64.7963 362.901C64.3609 364.407 67.7279 364.104 69.2585 364.675C80.2329 368.773 93.4125 371.756 108.387 371.57C131.858 371.277 149.742 363.323 159.196 358.209C152.785 343.262 146.074 323.032 143.202 298.48C137.724 251.643 149.123 213.869 157.067 193.5C149.823 188.493 126.88 173.991 99.7341 178.677C92.971 179.845 82.4181 181.817 73.6627 190.68Z" fill="url(#paint25_linear_1431_1919)"/>
<path opacity="0.3" d="M143.203 298.479C137.725 251.641 149.123 213.867 157.067 193.498C149.823 188.491 126.88 173.989 99.7344 178.676C92.9707 179.844 82.4178 181.816 73.6627 190.679C67.0444 197.378 64.2824 205.148 63.0986 210.323C63.3013 210.289 63.5807 210.244 63.9137 210.197C80.6315 207.889 99.9394 221.338 106.54 234.061C117.556 255.293 92.2157 272.642 92.8496 306.29C93.1923 324.481 101.098 345.989 125.267 370.007C140.459 367.383 152.163 362.012 159.197 358.208C152.786 343.26 146.074 323.031 143.203 298.479Z" fill="url(#paint26_linear_1431_1919)"/>
<path d="M106.084 161.832C103.702 166.666 101.691 172.712 104.314 176.768C105.911 179.239 108.556 180.616 111.167 181.913C117.339 184.979 120.203 183.734 121.421 185.594C124.102 189.688 116.51 205.31 104.127 206.667C91.8028 208.017 80.6497 194.59 82.5047 188.918C84.1784 183.8 96.3106 185.405 98.4795 178.938C99.5715 175.682 97.5725 172.066 95.8182 169.618L94.3668 169.745L106.084 161.832Z" fill="url(#paint27_linear_1431_1919)"/>
<path opacity="0.4" d="M121.42 185.594C120.202 183.734 117.338 184.978 111.167 181.913C108.555 180.616 105.911 179.239 104.313 176.768C101.691 172.712 103.702 166.665 106.084 161.832L94.3662 169.744L95.8176 169.618C97.2099 171.561 98.7304 174.239 98.7631 176.89C99.6149 177.478 100.334 178.125 100.844 178.752C99.2275 182.239 98.6793 185.249 98.4691 187.195C98.1412 190.23 97.8979 192.485 99.2001 194.615C100.621 196.938 103.048 197.753 105.171 198.465C109.887 200.047 114.293 199.521 117.188 198.828C121.191 193.826 122.926 187.892 121.42 185.594Z" fill="url(#paint28_linear_1431_1919)"/>
<path d="M103.919 166.49C103.919 166.49 104.329 172.697 98.2888 173.736C90.846 175.016 86.7439 155.498 88.3684 154.073C90.2519 152.42 92.621 155.304 97.325 153.377C99.3057 152.565 100.644 149.621 102.163 152.301C103.891 155.349 103.846 161.263 103.846 161.263C103.846 161.263 105.373 159.509 105.937 161.22C106.675 163.459 105.19 165.182 103.919 166.49Z" fill="url(#paint29_linear_1431_1919)"/>
<path d="M92.8147 143.884C90.1789 146.068 88.3753 150.648 89.782 153.19C91.8029 156.842 99.1917 154.013 101.631 158.477C102.701 160.435 102.365 162.963 103.022 162.989C103.566 163.011 104.067 161.287 104.529 159.874C107.071 152.083 109.149 151.395 108.781 149.051C108.031 144.286 98.2267 139.399 92.8147 143.884Z" fill="url(#paint30_linear_1431_1919)"/>
<path d="M136.557 192.828C144.767 193.349 145.591 190.887 154.677 197.544C180.769 216.658 197.693 270.572 171.82 296.629C157.43 311.123 131.168 319.972 108.826 308.91C90.6385 299.905 83.9306 282.102 82.3018 277.335C82.601 272.556 82.9005 267.777 83.1998 262.999C93.4159 274.019 102.192 276.804 108.558 277.145C119.394 277.726 123.896 271.258 142.432 270.237C149.653 269.839 153.686 270.561 154.528 268.596C156.269 264.533 140.51 257.988 133.089 245.947C127.679 237.169 124.401 221.739 136.557 192.828Z" fill="url(#paint31_linear_1431_1919)"/>
<path d="M104.534 152.505C102.683 154.15 105.706 160.543 111.827 173.262C115.595 181.091 117.479 185.005 118.77 186.747C125.721 196.125 138.264 204.093 151.717 204.736C160.949 205.176 162.658 201.788 170.052 203.823C181.206 206.892 186.69 217.184 187.258 216.731C187.884 216.23 181.827 203.157 168.172 191.364C157 181.714 153.463 183.909 135.741 170.311C134.455 169.325 129.015 165.125 121.275 160.232C112.175 154.479 106.375 150.869 104.534 152.505Z" fill="url(#paint32_linear_1431_1919)"/>
<path d="M31.8939 224.509L50.869 271.451C51.1908 272.321 51.8956 272.994 52.7793 273.274L74.6534 280.222C76.9129 280.94 79.0756 278.882 78.4718 276.59L66.7782 232.209C66.5106 231.194 65.7451 228.94 63.8082 228.325L37.1642 220.624C34.7895 219.92 31.0348 222.186 31.8939 224.509Z" fill="url(#paint33_linear_1431_1919)"/>
<path d="M31.6533 225.252L48.4541 270.684C48.7759 271.553 49.4808 272.226 50.3644 272.506L72.2386 279.454C74.4983 280.172 76.6608 278.115 76.0568 275.822L64.3632 231.441C64.0955 230.426 63.3172 229.623 62.3102 229.325L35.3286 221.325C32.9541 220.622 30.7942 222.929 31.6533 225.252Z" fill="url(#paint34_linear_1431_1919)"/>
<path d="M84.3667 266.842L82.0654 264.694C82.0654 264.694 78.7957 260.221 76.332 258.055C73.8686 255.889 71.4559 255.452 68.8403 257.537C66.2247 259.621 68.4467 263.069 70.3373 266.077C71.4878 267.907 74.7299 269.067 77.4287 269.769C79.326 270.263 82.6489 272.74 82.6489 272.74L84.3667 266.842Z" fill="url(#paint35_linear_1431_1919)"/>
<path d="M34.2068 246.304L36.373 244.02C36.373 244.02 40.8725 240.787 43.0581 238.341C45.2442 235.895 45.7003 233.486 43.6372 230.854C41.5739 228.221 38.1084 230.415 35.0852 232.281C33.2459 233.417 32.0593 236.65 31.3357 239.343C30.8269 241.236 28.3223 244.539 28.3223 244.539L34.2068 246.304Z" fill="url(#paint36_linear_1431_1919)"/>
<path d="M27.9616 241.688C30.7663 243.087 33.5716 244.484 36.3763 245.883C37.2348 246.976 47.4543 260.392 41.9987 273.256C41.289 274.93 38.6056 281.257 33.3142 282.377C25.1482 284.106 13.2521 272.913 13.636 260.897C13.8931 252.843 19.6342 245.445 27.9616 241.688Z" fill="url(#paint37_linear_1431_1919)"/>
<defs>
<linearGradient id="paint0_linear_1431_1919" x1="91.8361" y1="108.041" x2="155.605" y2="309.407" gradientUnits="userSpaceOnUse">
<stop stop-color="#94AB6B"/>
<stop offset="1" stop-color="#566D37"/>
</linearGradient>
<linearGradient id="paint1_linear_1431_1919" x1="92.3321" y1="30.5535" x2="194.962" y2="325.438" gradientUnits="userSpaceOnUse">
<stop stop-color="#CEDCB5"/>
<stop offset="0.9964" stop-color="#7A9150"/>
</linearGradient>
<linearGradient id="paint2_linear_1431_1919" x1="495.311" y1="53.5373" x2="344.304" y2="383.674" gradientUnits="userSpaceOnUse">
<stop stop-color="#CEDCB5"/>
<stop offset="0.9964" stop-color="#7A9150"/>
</linearGradient>
<linearGradient id="paint3_linear_1431_1919" x1="530.8" y1="149.851" x2="343.815" y2="399.904" gradientUnits="userSpaceOnUse">
<stop offset="0.0036" stop-color="#93AA6A"/>
<stop offset="1" stop-color="#142B00"/>
</linearGradient>
<linearGradient id="paint4_linear_1431_1919" x1="465.065" y1="258.465" x2="359.533" y2="441.433" gradientUnits="userSpaceOnUse">
<stop stop-color="#BDD09C"/>
<stop offset="0.9964" stop-color="#475E1D"/>
</linearGradient>
<linearGradient id="paint5_linear_1431_1919" x1="480.571" y1="456.285" x2="236.558" y2="248.13" gradientUnits="userSpaceOnUse">
<stop stop-color="#444B8C"/>
<stop offset="0.9964" stop-color="#2B3582"/>
</linearGradient>
<linearGradient id="paint6_linear_1431_1919" x1="276.806" y1="529.04" x2="310.255" y2="-370.15" gradientUnits="userSpaceOnUse">
<stop stop-color="#444B8C"/>
<stop offset="0.9964" stop-color="#2B3582"/>
</linearGradient>
<linearGradient id="paint7_linear_1431_1919" x1="152.594" y1="287.249" x2="420.615" y2="287.249" gradientUnits="userSpaceOnUse">
<stop stop-color="#AAC7FF"/>
<stop offset="1" stop-color="#ABCBFF"/>
</linearGradient>
<linearGradient id="paint8_linear_1431_1919" x1="236.81" y1="33.3881" x2="471.699" y2="513.682" gradientUnits="userSpaceOnUse">
<stop stop-color="#E992EC"/>
<stop offset="0.9964" stop-color="#6165D7"/>
</linearGradient>
<linearGradient id="paint9_linear_1431_1919" x1="204.584" y1="49.1473" x2="439.472" y2="529.441" gradientUnits="userSpaceOnUse">
<stop stop-color="#E992EC"/>
<stop offset="0.9964" stop-color="#81A3F5"/>
</linearGradient>
<linearGradient id="paint10_linear_1431_1919" x1="145.962" y1="77.818" x2="380.85" y2="558.112" gradientUnits="userSpaceOnUse">
<stop stop-color="#C987E7"/>
<stop offset="0.9964" stop-color="#E992EC"/>
</linearGradient>
<linearGradient id="paint11_linear_1431_1919" x1="72.4699" y1="113.756" x2="307.358" y2="594.051" gradientUnits="userSpaceOnUse">
<stop stop-color="#AA80F9"/>
<stop offset="0.9964" stop-color="#E992EC"/>
</linearGradient>
<linearGradient id="paint12_linear_1431_1919" x1="97.8901" y1="101.324" x2="332.779" y2="581.618" gradientUnits="userSpaceOnUse">
<stop stop-color="#AA80F9"/>
<stop offset="0.9964" stop-color="#E992EC"/>
</linearGradient>
<linearGradient id="paint13_linear_1431_1919" x1="123.105" y1="88.9928" x2="357.993" y2="569.287" gradientUnits="userSpaceOnUse">
<stop stop-color="#AA80F9"/>
<stop offset="0.9964" stop-color="#E992EC"/>
</linearGradient>
<linearGradient id="paint14_linear_1431_1919" x1="148.114" y1="76.7619" x2="383.003" y2="557.057" gradientUnits="userSpaceOnUse">
<stop stop-color="#AA80F9"/>
<stop offset="0.9964" stop-color="#D08BF1"/>
</linearGradient>
<linearGradient id="paint15_linear_1431_1919" x1="172.929" y1="64.6277" x2="407.817" y2="544.922" gradientUnits="userSpaceOnUse">
<stop stop-color="#AA80F9"/>
<stop offset="0.9964" stop-color="#D28CF1"/>
</linearGradient>
<linearGradient id="paint16_linear_1431_1919" x1="276.216" y1="277.395" x2="430.215" y2="277.395" gradientUnits="userSpaceOnUse">
<stop stop-color="#BDD09C"/>
<stop offset="1" stop-color="#A3CBDC"/>
</linearGradient>
<linearGradient id="paint17_linear_1431_1919" x1="141.898" y1="343.661" x2="272.979" y2="348.537" gradientUnits="userSpaceOnUse">
<stop stop-color="#91B3FA"/>
<stop offset="1" stop-color="#BDD09C"/>
</linearGradient>
<linearGradient id="paint18_linear_1431_1919" x1="27.4239" y1="182.757" x2="65.4523" y2="251.832" gradientUnits="userSpaceOnUse">
<stop stop-color="#A67EF7"/>
<stop offset="0.9964" stop-color="#A67FF7"/>
</linearGradient>
<linearGradient id="paint19_linear_1431_1919" x1="57.1498" y1="543.674" x2="73.7372" y2="545.464" gradientUnits="userSpaceOnUse">
<stop stop-color="#AA80F9"/>
<stop offset="0.9964" stop-color="#6165D7"/>
</linearGradient>
<linearGradient id="paint20_linear_1431_1919" x1="88.3012" y1="551.915" x2="104.889" y2="553.705" gradientUnits="userSpaceOnUse">
<stop stop-color="#AA80F9"/>
<stop offset="0.9964" stop-color="#6165D7"/>
</linearGradient>
<linearGradient id="paint21_linear_1431_1919" x1="41.1402" y1="427.648" x2="142.552" y2="425.883" gradientUnits="userSpaceOnUse">
<stop stop-color="#444B8C"/>
<stop offset="0.9964" stop-color="#150E42"/>
</linearGradient>
<linearGradient id="paint22_linear_1431_1919" x1="36.8781" y1="420.654" x2="134.327" y2="430.754" gradientUnits="userSpaceOnUse">
<stop stop-color="#444B8C"/>
<stop offset="0.9964" stop-color="#26264F"/>
</linearGradient>
<linearGradient id="paint23_linear_1431_1919" x1="254.922" y1="265.113" x2="75.8406" y2="145.653" gradientUnits="userSpaceOnUse">
<stop stop-color="#9468B6"/>
<stop offset="1" stop-color="#6B3976"/>
</linearGradient>
<linearGradient id="paint24_linear_1431_1919" x1="252.336" y1="268.989" x2="73.2557" y2="149.53" gradientUnits="userSpaceOnUse">
<stop stop-color="#9468B6"/>
<stop offset="1" stop-color="#6B3976"/>
</linearGradient>
<linearGradient id="paint25_linear_1431_1919" x1="75.2743" y1="247.856" x2="209.873" y2="390.55" gradientUnits="userSpaceOnUse">
<stop stop-color="#AA80F9"/>
<stop offset="0.9964" stop-color="#6165D7"/>
</linearGradient>
<linearGradient id="paint26_linear_1431_1919" x1="86.8812" y1="238.914" x2="232.835" y2="354.092" gradientUnits="userSpaceOnUse">
<stop stop-color="#AA80F9"/>
<stop offset="0.9964" stop-color="#6165D7"/>
</linearGradient>
<linearGradient id="paint27_linear_1431_1919" x1="102.877" y1="224.423" x2="101.167" y2="143.471" gradientUnits="userSpaceOnUse">
<stop stop-color="#FFC245"/>
<stop offset="0.9964" stop-color="#FA9E4D"/>
</linearGradient>
<linearGradient id="paint28_linear_1431_1919" x1="103.332" y1="213.147" x2="112.639" y2="147.491" gradientUnits="userSpaceOnUse">
<stop stop-color="#FBA54B"/>
<stop offset="0.9964" stop-color="#7A9150"/>
</linearGradient>
<linearGradient id="paint29_linear_1431_1919" x1="96.4118" y1="155.783" x2="108.327" y2="223.593" gradientUnits="userSpaceOnUse">
<stop stop-color="#FEB847"/>
<stop offset="0.9964" stop-color="#617837"/>
</linearGradient>
<linearGradient id="paint30_linear_1431_1919" x1="259.911" y1="257.635" x2="80.8298" y2="138.176" gradientUnits="userSpaceOnUse">
<stop stop-color="#9468B6"/>
<stop offset="1" stop-color="#6B3976"/>
</linearGradient>
<linearGradient id="paint31_linear_1431_1919" x1="118.607" y1="239.528" x2="190.123" y2="324.699" gradientUnits="userSpaceOnUse">
<stop stop-color="#AA80F9"/>
<stop offset="0.9964" stop-color="#6165D7"/>
</linearGradient>
<linearGradient id="paint32_linear_1431_1919" x1="255.149" y1="264.77" x2="76.0692" y2="145.311" gradientUnits="userSpaceOnUse">
<stop stop-color="#9468B6"/>
<stop offset="1" stop-color="#6B3976"/>
</linearGradient>
<linearGradient id="paint33_linear_1431_1919" x1="93.1227" y1="226.894" x2="69.7499" y2="241.56" gradientUnits="userSpaceOnUse">
<stop stop-color="#FFC444"/>
<stop offset="0.9964" stop-color="#F36F56"/>
</linearGradient>
<linearGradient id="paint34_linear_1431_1919" x1="25.901" y1="241.249" x2="119.267" y2="270.902" gradientUnits="userSpaceOnUse">
<stop stop-color="#154F67"/>
<stop offset="1" stop-color="#FB6FBB"/>
</linearGradient>
<linearGradient id="paint35_linear_1431_1919" x1="69.6885" y1="256.861" x2="90.992" y2="283.592" gradientUnits="userSpaceOnUse">
<stop stop-color="#FFC444"/>
<stop offset="0.9964" stop-color="#F36F56"/>
</linearGradient>
<linearGradient id="paint36_linear_1431_1919" x1="44.3065" y1="231.708" x2="17.4034" y2="252.793" gradientUnits="userSpaceOnUse">
<stop stop-color="#FFC444"/>
<stop offset="0.9964" stop-color="#F36F56"/>
</linearGradient>
<linearGradient id="paint37_linear_1431_1919" x1="42.6823" y1="248.462" x2="3.0814" y2="291.628" gradientUnits="userSpaceOnUse">
<stop stop-color="#AA80F9"/>
<stop offset="0.9964" stop-color="#9F7CF4"/>
</linearGradient>
</defs>
</svg>
