<svg width="457" height="130" viewBox="0 0 457 130" fill="none" xmlns="http://www.w3.org/2000/svg">
<path d="M171.278 21.4243C171.084 19.704 170.284 18.3713 168.879 17.4263C167.473 16.4692 165.705 15.9906 163.572 15.9906C162.046 15.9906 160.725 16.2329 159.611 16.7176C158.496 17.19 157.63 17.8443 157.012 18.6802C156.406 19.5041 156.103 20.443 156.103 21.497C156.103 22.3814 156.309 23.1447 156.721 23.7868C157.145 24.4289 157.696 24.968 158.375 25.4042C159.065 25.8282 159.804 26.1856 160.592 26.4763C161.379 26.755 162.137 26.9852 162.864 27.1669L166.498 28.1119C167.685 28.4027 168.903 28.7964 170.151 29.2931C171.399 29.7899 172.556 30.4441 173.622 31.2558C174.688 32.0675 175.548 33.0731 176.202 34.2725C176.869 35.4719 177.202 36.9075 177.202 38.5794C177.202 40.6875 176.657 42.5593 175.566 44.1948C174.488 45.8304 172.919 47.1206 170.86 48.0656C168.812 49.0106 166.335 49.4831 163.427 49.4831C160.64 49.4831 158.229 49.0409 156.194 48.1565C154.159 47.2721 152.566 46.0182 151.415 44.3947C150.264 42.7592 149.628 40.8207 149.507 38.5794H155.14C155.249 39.9242 155.685 41.0449 156.449 41.9414C157.224 42.8258 158.211 43.4861 159.411 43.9222C160.622 44.3463 161.949 44.5583 163.391 44.5583C164.978 44.5583 166.389 44.3099 167.625 43.8132C168.873 43.3044 169.854 42.6017 170.569 41.7052C171.284 40.7965 171.641 39.7364 171.641 38.5249C171.641 37.4224 171.326 36.5198 170.696 35.8172C170.078 35.1145 169.236 34.533 168.17 34.0726C167.116 33.6122 165.923 33.2063 164.59 32.855L160.192 31.6556C157.212 30.8439 154.849 29.6505 153.105 28.0756C151.372 26.5006 150.506 24.4168 150.506 21.8241C150.506 19.6797 151.088 17.8079 152.251 16.2087C153.414 14.6095 154.989 13.3677 156.976 12.4833C158.962 11.5868 161.204 11.1385 163.699 11.1385C166.219 11.1385 168.443 11.5807 170.369 12.4651C172.307 13.3495 173.834 14.5671 174.948 16.1179C176.063 17.6565 176.645 19.4253 176.693 21.4243H171.278ZM201.158 37.2892V20.9518H206.61V48.8652H201.267V44.0313H200.976C200.334 45.5214 199.305 46.7632 197.887 47.7567C196.482 48.738 194.731 49.2287 192.635 49.2287C190.842 49.2287 189.255 48.8349 187.874 48.0475C186.505 47.2479 185.427 46.0666 184.639 44.5038C183.864 42.9409 183.476 41.0085 183.476 38.7066V20.9518H188.91V38.0524C188.91 39.9545 189.437 41.4689 190.491 42.5956C191.545 43.7223 192.914 44.2857 194.598 44.2857C195.615 44.2857 196.627 44.0313 197.633 43.5224C198.65 43.0136 199.492 42.2443 200.159 41.2145C200.837 40.1847 201.17 38.8763 201.158 37.2892ZM234.828 27.7666L229.903 28.6389C229.697 28.0089 229.37 27.4092 228.922 26.8398C228.486 26.2704 227.892 25.804 227.141 25.4405C226.39 25.077 225.451 24.8953 224.324 24.8953C222.785 24.8953 221.501 25.2406 220.471 25.9312C219.442 26.6096 218.927 27.488 218.927 28.5662C218.927 29.4991 219.272 30.2502 219.962 30.8196C220.653 31.3891 221.768 31.8555 223.306 32.219L227.74 33.2366C230.309 33.8303 232.223 34.745 233.483 35.9807C234.743 37.2165 235.373 38.8217 235.373 40.7965C235.373 42.4684 234.888 43.9586 233.919 45.267C232.962 46.5633 231.623 47.581 229.903 48.3201C228.195 49.0591 226.214 49.4286 223.96 49.4286C220.835 49.4286 218.285 48.7623 216.31 47.4296C214.335 46.0848 213.123 44.1767 212.675 41.7052L217.927 40.9055C218.254 42.2746 218.927 43.3104 219.944 44.0131C220.962 44.7037 222.289 45.0489 223.924 45.0489C225.705 45.0489 227.129 44.6794 228.195 43.9404C229.261 43.1893 229.794 42.2746 229.794 41.1963C229.794 40.324 229.467 39.5911 228.813 38.9974C228.171 38.4038 227.183 37.9555 225.85 37.6526L221.126 36.6168C218.521 36.0231 216.594 35.0781 215.347 33.7818C214.111 32.4855 213.493 30.8439 213.493 28.857C213.493 27.2093 213.953 25.7676 214.874 24.5319C215.795 23.2961 217.067 22.333 218.69 21.6424C220.314 20.9397 222.173 20.5884 224.269 20.5884C227.286 20.5884 229.661 21.2426 231.393 22.551C233.126 23.8474 234.271 25.5859 234.828 27.7666ZM254.377 20.9518V25.3133H239.13V20.9518H254.377ZM243.219 14.2642H248.653V40.6693C248.653 41.7233 248.81 42.5169 249.125 43.0499C249.44 43.5709 249.846 43.9283 250.343 44.1221C250.852 44.3039 251.403 44.3947 251.997 44.3947C252.433 44.3947 252.814 44.3644 253.141 44.3039C253.469 44.2433 253.723 44.1948 253.905 44.1585L254.886 48.6472C254.571 48.7683 254.123 48.8895 253.541 49.0106C252.96 49.1439 252.233 49.2166 251.361 49.2287C249.931 49.2529 248.598 48.9985 247.363 48.4654C246.127 47.9324 245.127 47.1085 244.364 45.9939C243.601 44.8793 243.219 43.48 243.219 41.796V14.2642ZM268.511 49.4831C266.742 49.4831 265.143 49.156 263.713 48.5018C262.284 47.8354 261.151 46.8723 260.315 45.6123C259.491 44.3523 259.079 42.8076 259.079 40.9782C259.079 39.4033 259.382 38.1069 259.988 37.0893C260.594 36.0716 261.412 35.2659 262.441 34.6723C263.471 34.0786 264.622 33.6304 265.894 33.3275C267.166 33.0246 268.463 32.7944 269.783 32.6369C271.455 32.4431 272.812 32.2856 273.854 32.1644C274.896 32.0312 275.653 31.8192 276.125 31.5284C276.598 31.2376 276.834 30.7651 276.834 30.1109V29.9837C276.834 28.3966 276.386 27.1669 275.489 26.2946C274.605 25.4223 273.284 24.9862 271.528 24.9862C269.698 24.9862 268.257 25.392 267.203 26.2038C266.161 27.0034 265.44 27.8938 265.04 28.8752L259.934 27.7121C260.539 26.016 261.424 24.647 262.587 23.605C263.762 22.551 265.113 21.7878 266.639 21.3153C268.166 20.8307 269.771 20.5884 271.455 20.5884C272.57 20.5884 273.751 20.7216 274.999 20.9882C276.259 21.2426 277.434 21.7151 278.524 22.4056C279.627 23.0962 280.529 24.0836 281.232 25.3678C281.935 26.6399 282.286 28.2936 282.286 30.329V48.8652H276.98V45.0489H276.762C276.41 45.7516 275.883 46.4422 275.181 47.1206C274.478 47.7991 273.575 48.3625 272.473 48.8107C271.37 49.259 270.05 49.4831 268.511 49.4831ZM269.692 45.1216C271.195 45.1216 272.479 44.8248 273.545 44.2312C274.623 43.6375 275.441 42.8622 275.998 41.9051C276.568 40.9358 276.852 39.9 276.852 38.7975V35.1993C276.659 35.3931 276.283 35.5749 275.726 35.7445C275.181 35.902 274.557 36.0413 273.854 36.1624C273.151 36.2715 272.467 36.3745 271.8 36.4714C271.134 36.5562 270.577 36.6289 270.128 36.6895C269.074 36.8227 268.111 37.0469 267.239 37.3619C266.379 37.6768 265.688 38.1312 265.167 38.7248C264.658 39.3063 264.404 40.0817 264.404 41.0509C264.404 42.3957 264.901 43.4134 265.894 44.104C266.888 44.7824 268.154 45.1216 269.692 45.1216ZM289.523 48.8652V20.9518H294.957V48.8652H289.523ZM292.267 16.6449C291.322 16.6449 290.511 16.3299 289.832 15.6999C289.166 15.0578 288.833 14.2945 288.833 13.4101C288.833 12.5136 289.166 11.7503 289.832 11.1203C290.511 10.4782 291.322 10.1572 292.267 10.1572C293.212 10.1572 294.018 10.4782 294.684 11.1203C295.363 11.7503 295.702 12.5136 295.702 13.4101C295.702 14.2945 295.363 15.0578 294.684 15.6999C294.018 16.3299 293.212 16.6449 292.267 16.6449ZM307.701 32.2916V48.8652H302.267V20.9518H307.483V25.495H307.828C308.47 24.017 309.476 22.8297 310.845 21.9331C312.226 21.0366 313.964 20.5884 316.06 20.5884C317.962 20.5884 319.628 20.9882 321.058 21.7878C322.487 22.5753 323.596 23.7504 324.383 25.3133C325.171 26.8762 325.565 28.8085 325.565 31.1104V48.8652H320.131V31.7646C320.131 29.7414 319.604 28.1604 318.55 27.0215C317.496 25.8706 316.048 25.2951 314.207 25.2951C312.947 25.2951 311.826 25.5677 310.845 26.1129C309.875 26.6581 309.106 27.4577 308.537 28.5117C307.979 29.5536 307.701 30.8136 307.701 32.2916ZM332.852 48.8652V20.9518H338.286V48.8652H332.852ZM335.596 16.6449C334.651 16.6449 333.839 16.3299 333.161 15.6999C332.494 15.0578 332.161 14.2945 332.161 13.4101C332.161 12.5136 332.494 11.7503 333.161 11.1203C333.839 10.4782 334.651 10.1572 335.596 10.1572C336.541 10.1572 337.347 10.4782 338.013 11.1203C338.691 11.7503 339.031 12.5136 339.031 13.4101C339.031 14.2945 338.691 15.0578 338.013 15.6999C337.347 16.3299 336.541 16.6449 335.596 16.6449ZM357.353 49.4286C354.652 49.4286 352.326 48.8168 350.375 47.5931C348.437 46.3574 346.946 44.6552 345.904 42.4866C344.863 40.318 344.342 37.8343 344.342 35.0357C344.342 32.2008 344.875 29.699 345.941 27.5304C347.007 25.3496 348.509 23.6474 350.448 22.4238C352.386 21.2002 354.67 20.5884 357.299 20.5884C359.419 20.5884 361.309 20.9821 362.969 21.7696C364.629 22.545 365.967 23.6353 366.985 25.0407C368.015 26.4461 368.627 28.0877 368.82 29.9655H363.532C363.241 28.6571 362.575 27.5304 361.533 26.5854C360.503 25.6404 359.122 25.1679 357.39 25.1679C355.875 25.1679 354.549 25.5677 353.41 26.3673C352.283 27.1548 351.405 28.2815 350.775 29.7475C350.145 31.2013 349.83 32.9216 349.83 34.9085C349.83 36.9439 350.139 38.7006 350.757 40.1786C351.374 41.6567 352.247 42.8016 353.373 43.6133C354.512 44.425 355.851 44.8309 357.39 44.8309C358.419 44.8309 359.352 44.6431 360.188 44.2675C361.036 43.8798 361.745 43.3286 362.315 42.6138C362.896 41.899 363.302 41.0388 363.532 40.0333H368.82C368.627 41.8384 368.039 43.4497 367.058 44.8672C366.076 46.2847 364.762 47.3993 363.114 48.211C361.479 49.0227 359.558 49.4286 357.353 49.4286ZM386.389 49.4286C383.772 49.4286 381.488 48.8289 379.538 47.6295C377.587 46.4301 376.073 44.7521 374.995 42.5956C373.916 40.4391 373.377 37.9192 373.377 35.0357C373.377 32.1402 373.916 29.6081 374.995 27.4395C376.073 25.2709 377.587 23.5869 379.538 22.3875C381.488 21.1881 383.772 20.5884 386.389 20.5884C389.006 20.5884 391.29 21.1881 393.24 22.3875C395.191 23.5869 396.705 25.2709 397.783 27.4395C398.862 29.6081 399.401 32.1402 399.401 35.0357C399.401 37.9192 398.862 40.4391 397.783 42.5956C396.705 44.7521 395.191 46.4301 393.24 47.6295C391.29 48.8289 389.006 49.4286 386.389 49.4286ZM386.407 44.8672C388.103 44.8672 389.509 44.419 390.623 43.5224C391.738 42.6259 392.562 41.4326 393.095 39.9424C393.64 38.4522 393.912 36.8106 393.912 35.0176C393.912 33.2366 393.64 31.6011 393.095 30.1109C392.562 28.6086 391.738 27.4032 390.623 26.4945C389.509 25.5859 388.103 25.1316 386.407 25.1316C384.699 25.1316 383.281 25.5859 382.155 26.4945C381.04 27.4032 380.21 28.6086 379.665 30.1109C379.132 31.6011 378.865 33.2366 378.865 35.0176C378.865 36.8106 379.132 38.4522 379.665 39.9424C380.21 41.4326 381.04 42.6259 382.155 43.5224C383.281 44.419 384.699 44.8672 386.407 44.8672Z" fill="#28554A"/>
<line x1="128.909" y1="5.86694" x2="128.909" y2="119.396" stroke="#28554A" stroke-width="1.20964"/>
<path d="M150.184 89.0283V74.1412H159.168V75.7404H151.986V80.7706H158.703V82.3698H151.986V87.4291H159.285V89.0283H150.184ZM162.185 89.0283V77.863H163.842V79.6075H163.988C164.22 79.0115 164.596 78.5487 165.114 78.2191C165.633 77.8848 166.256 77.7176 166.983 77.7176C167.719 77.7176 168.332 77.8848 168.822 78.2191C169.316 78.5487 169.701 79.0115 169.977 79.6075H170.094C170.38 79.0309 170.809 78.5729 171.38 78.2337C171.952 77.8896 172.638 77.7176 173.438 77.7176C174.436 77.7176 175.252 78.0301 175.887 78.6553C176.522 79.2756 176.839 80.2424 176.839 81.5557V89.0283H175.124V81.5557C175.124 80.7318 174.899 80.143 174.448 79.7893C173.997 79.4355 173.467 79.2586 172.856 79.2586C172.071 79.2586 171.463 79.4961 171.031 79.971C170.6 80.4411 170.384 81.0371 170.384 81.7592V89.0283H168.64V81.3812C168.64 80.7464 168.434 80.2351 168.022 79.8474C167.61 79.4549 167.079 79.2586 166.43 79.2586C165.984 79.2586 165.567 79.3774 165.18 79.6148C164.797 79.8523 164.487 80.1818 164.249 80.6034C164.017 81.0202 163.9 81.5024 163.9 82.05V89.0283H162.185ZM179.976 93.2153V77.863H181.633V79.6366H181.837C181.963 79.4428 182.137 79.1956 182.36 78.8952C182.588 78.5899 182.913 78.3185 183.334 78.081C183.761 77.8387 184.338 77.7176 185.064 77.7176C186.005 77.7176 186.833 77.9526 187.551 78.4227C188.268 78.8927 188.827 79.5591 189.23 80.4217C189.632 81.2843 189.833 82.302 189.833 83.4747C189.833 84.6572 189.632 85.6821 189.23 86.5496C188.827 87.4122 188.27 88.0809 187.558 88.5558C186.845 89.0259 186.024 89.2609 185.094 89.2609C184.376 89.2609 183.802 89.1422 183.371 88.9047C182.939 88.6624 182.608 88.3886 182.375 88.0833C182.142 87.7732 181.963 87.5163 181.837 87.3128H181.692V93.2153H179.976ZM181.663 83.4456C181.663 84.2889 181.786 85.0327 182.033 85.6773C182.28 86.3169 182.641 86.8185 183.116 87.182C183.591 87.5406 184.173 87.7199 184.861 87.7199C185.578 87.7199 186.177 87.5309 186.656 87.1529C187.141 86.77 187.504 86.2564 187.747 85.6118C187.994 84.9625 188.117 84.2404 188.117 83.4456C188.117 82.6606 187.996 81.953 187.754 81.3231C187.517 80.6882 187.156 80.1866 186.671 79.8183C186.191 79.4452 185.588 79.2586 184.861 79.2586C184.163 79.2586 183.577 79.4355 183.102 79.7893C182.627 80.1382 182.268 80.6276 182.026 81.2576C181.784 81.8828 181.663 82.6121 181.663 83.4456ZM196.986 89.2609C195.978 89.2609 195.093 89.0211 194.333 88.5413C193.577 88.0615 192.985 87.3903 192.559 86.5277C192.137 85.6651 191.927 84.6572 191.927 83.5038C191.927 82.3407 192.137 81.3255 192.559 80.458C192.985 79.5906 193.577 78.917 194.333 78.4372C195.093 77.9575 195.978 77.7176 196.986 77.7176C197.994 77.7176 198.876 77.9575 199.632 78.4372C200.393 78.917 200.984 79.5906 201.405 80.458C201.832 81.3255 202.045 82.3407 202.045 83.5038C202.045 84.6572 201.832 85.6651 201.405 86.5277C200.984 87.3903 200.393 88.0615 199.632 88.5413C198.876 89.0211 197.994 89.2609 196.986 89.2609ZM196.986 87.7199C197.752 87.7199 198.381 87.5236 198.876 87.1311C199.37 86.7385 199.736 86.2224 199.973 85.5828C200.211 84.9431 200.33 84.2501 200.33 83.5038C200.33 82.7575 200.211 82.0621 199.973 81.4176C199.736 80.773 199.37 80.2521 198.876 79.8547C198.381 79.4573 197.752 79.2586 196.986 79.2586C196.22 79.2586 195.59 79.4573 195.096 79.8547C194.602 80.2521 194.236 80.773 193.998 81.4176C193.761 82.0621 193.642 82.7575 193.642 83.5038C193.642 84.2501 193.761 84.9431 193.998 85.5828C194.236 86.2224 194.602 86.7385 195.096 87.1311C195.59 87.5236 196.22 87.7199 196.986 87.7199ZM206.814 89.0283L203.412 77.863H205.214L207.628 86.4114H207.744L210.128 77.863H211.96L214.315 86.3824H214.432L216.845 77.863H218.648L215.246 89.0283H213.559L211.117 80.4508H210.943L208.5 89.0283H206.814ZM225.217 89.2609C224.141 89.2609 223.213 89.0235 222.433 88.5486C221.658 88.0688 221.059 87.4 220.638 86.5423C220.221 85.6797 220.013 84.6765 220.013 83.5329C220.013 82.3892 220.221 81.3812 220.638 80.5089C221.059 79.6318 221.646 78.9485 222.397 78.459C223.153 77.9647 224.035 77.7176 225.043 77.7176C225.624 77.7176 226.199 77.8145 226.766 78.0083C227.333 78.2022 227.849 78.5172 228.314 78.9533C228.779 79.3846 229.15 79.9565 229.426 80.6688C229.702 81.3812 229.84 82.2583 229.84 83.3003V84.0272H221.234V82.5443H228.096C228.096 81.9143 227.97 81.3521 227.718 80.8578C227.471 80.3635 227.117 79.9734 226.657 79.6875C226.201 79.4016 225.663 79.2586 225.043 79.2586C224.359 79.2586 223.768 79.4282 223.269 79.7675C222.775 80.1018 222.394 80.538 222.128 81.0759C221.861 81.6138 221.728 82.1905 221.728 82.806V83.7946C221.728 84.6378 221.873 85.3526 222.164 85.9389C222.46 86.5205 222.869 86.9639 223.393 87.2692C223.916 87.5697 224.524 87.7199 225.217 87.7199C225.668 87.7199 226.075 87.6569 226.438 87.5309C226.807 87.4 227.124 87.2062 227.391 86.9494C227.657 86.6877 227.863 86.363 228.009 85.9753L229.666 86.4405C229.491 87.0027 229.198 87.497 228.786 87.9234C228.374 88.345 227.866 88.6746 227.26 88.912C226.654 89.1446 225.973 89.2609 225.217 89.2609ZM232.45 89.0283V77.863H234.107V79.5494H234.224C234.427 78.9969 234.796 78.5487 235.329 78.2046C235.862 77.8605 236.463 77.6885 237.131 77.6885C237.257 77.6885 237.415 77.6909 237.604 77.6958C237.793 77.7006 237.936 77.7079 238.033 77.7176V79.4622C237.975 79.4476 237.841 79.4258 237.633 79.3967C237.429 79.3628 237.214 79.3459 236.986 79.3459C236.443 79.3459 235.959 79.4597 235.532 79.6875C235.111 79.9104 234.776 80.2206 234.529 80.6179C234.287 81.0105 234.166 81.4587 234.166 81.9627V89.0283H232.45ZM240.066 89.0283V77.863H241.782V89.0283H240.066ZM240.939 76.0021C240.604 76.0021 240.316 75.8882 240.074 75.6604C239.836 75.4326 239.717 75.1588 239.717 74.839C239.717 74.5192 239.836 74.2454 240.074 74.0176C240.316 73.7898 240.604 73.6759 240.939 73.6759C241.273 73.6759 241.559 73.7898 241.796 74.0176C242.039 74.2454 242.16 74.5192 242.16 74.839C242.16 75.1588 242.039 75.4326 241.796 75.6604C241.559 75.8882 241.273 76.0021 240.939 76.0021ZM246.639 82.3117V89.0283H244.924V77.863H246.581V79.6075H246.727C246.988 79.0406 247.386 78.585 247.919 78.2409C248.452 77.892 249.14 77.7176 249.983 77.7176C250.739 77.7176 251.401 77.8726 251.968 78.1828C252.535 78.4881 252.976 78.9533 253.291 79.5785C253.606 80.1988 253.763 80.9838 253.763 81.9337V89.0283H252.048V82.05C252.048 81.1728 251.82 80.4895 251.364 80.0001C250.909 79.5058 250.284 79.2586 249.489 79.2586C248.941 79.2586 248.452 79.3774 248.02 79.6148C247.594 79.8523 247.257 80.1988 247.01 80.6543C246.763 81.1098 246.639 81.6623 246.639 82.3117ZM261.405 93.4479C260.576 93.4479 259.864 93.3413 259.268 93.1281C258.672 92.9197 258.175 92.6435 257.777 92.2994C257.385 91.9602 257.072 91.5967 256.84 91.2091L258.206 90.2495C258.361 90.4531 258.558 90.6857 258.795 90.9474C259.033 91.2139 259.357 91.4441 259.769 91.6379C260.186 91.8366 260.731 91.936 261.405 91.936C262.306 91.936 263.05 91.7179 263.636 91.2817C264.223 90.8456 264.516 90.1623 264.516 89.2319V86.9639H264.371C264.245 87.1674 264.065 87.4194 263.833 87.7199C263.605 88.0155 263.275 88.2796 262.844 88.5122C262.418 88.74 261.841 88.8539 261.114 88.8539C260.213 88.8539 259.403 88.6406 258.686 88.2142C257.974 87.7877 257.409 87.1674 256.992 86.3533C256.58 85.5391 256.375 84.5505 256.375 83.3875C256.375 82.2438 256.576 81.2479 256.978 80.3999C257.38 79.547 257.94 78.8879 258.657 78.4227C259.374 77.9526 260.203 77.7176 261.143 77.7176C261.87 77.7176 262.447 77.8387 262.873 78.081C263.304 78.3185 263.634 78.5899 263.862 78.8952C264.094 79.1956 264.274 79.4428 264.4 79.6366H264.574V77.863H266.231V89.3482C266.231 90.3077 266.013 91.0879 265.577 91.6888C265.146 92.2946 264.564 92.738 263.833 93.0191C263.106 93.305 262.296 93.4479 261.405 93.4479ZM261.347 87.3128C262.035 87.3128 262.616 87.1553 263.091 86.8403C263.566 86.5253 263.927 86.0722 264.174 85.481C264.421 84.8898 264.545 84.1822 264.545 83.3584C264.545 82.554 264.424 81.844 264.182 81.2286C263.939 80.6131 263.581 80.1309 263.106 79.782C262.631 79.4331 262.044 79.2586 261.347 79.2586C260.62 79.2586 260.014 79.4428 259.529 79.8111C259.05 80.1794 258.689 80.6737 258.446 81.294C258.209 81.9143 258.09 82.6024 258.09 83.3584C258.09 84.1338 258.211 84.8195 258.453 85.4156C258.701 86.0068 259.064 86.472 259.544 86.8112C260.028 87.1456 260.629 87.3128 261.347 87.3128ZM276.234 93.2153C275.943 93.2153 275.684 93.1911 275.456 93.1426C275.228 93.099 275.071 93.0554 274.983 93.0118L275.42 91.4998C275.836 91.6064 276.205 91.6452 276.525 91.6161C276.844 91.587 277.128 91.4441 277.375 91.1872C277.627 90.9353 277.857 90.5258 278.066 89.9588L278.385 89.0865L274.257 77.863H276.117L279.2 86.7604H279.316L282.398 77.863H284.259L279.519 90.6566C279.306 91.2333 279.042 91.7106 278.727 92.0886C278.412 92.4715 278.046 92.755 277.629 92.9391C277.218 93.1233 276.752 93.2153 276.234 93.2153ZM290.659 89.2609C289.651 89.2609 288.767 89.0211 288.006 88.5413C287.25 88.0615 286.659 87.3903 286.232 86.5277C285.811 85.6651 285.6 84.6572 285.6 83.5038C285.6 82.3407 285.811 81.3255 286.232 80.458C286.659 79.5906 287.25 78.917 288.006 78.4372C288.767 77.9575 289.651 77.7176 290.659 77.7176C291.667 77.7176 292.549 77.9575 293.305 78.4372C294.066 78.917 294.657 79.5906 295.079 80.458C295.505 81.3255 295.719 82.3407 295.719 83.5038C295.719 84.6572 295.505 85.6651 295.079 86.5277C294.657 87.3903 294.066 88.0615 293.305 88.5413C292.549 89.0211 291.667 89.2609 290.659 89.2609ZM290.659 87.7199C291.425 87.7199 292.055 87.5236 292.549 87.1311C293.044 86.7385 293.409 86.2224 293.647 85.5828C293.884 84.9431 294.003 84.2501 294.003 83.5038C294.003 82.7575 293.884 82.0621 293.647 81.4176C293.409 80.773 293.044 80.2521 292.549 79.8547C292.055 79.4573 291.425 79.2586 290.659 79.2586C289.894 79.2586 289.264 79.4573 288.769 79.8547C288.275 80.2521 287.909 80.773 287.672 81.4176C287.434 82.0621 287.316 82.7575 287.316 83.5038C287.316 84.2501 287.434 84.9431 287.672 85.5828C287.909 86.2224 288.275 86.7385 288.769 87.1311C289.264 87.5236 289.894 87.7199 290.659 87.7199ZM305.374 84.4633V77.863H307.089V89.0283H305.374V87.1383H305.258C304.996 87.7053 304.589 88.1875 304.036 88.5849C303.484 88.9774 302.786 89.1737 301.943 89.1737C301.245 89.1737 300.625 89.0211 300.082 88.7157C299.539 88.4056 299.113 87.9404 298.803 87.3201C298.492 86.6949 298.337 85.9074 298.337 84.9576V77.863H300.053V84.8413C300.053 85.6554 300.281 86.3048 300.736 86.7894C301.196 87.274 301.783 87.5163 302.495 87.5163C302.922 87.5163 303.355 87.4073 303.796 87.1892C304.242 86.9712 304.615 86.6368 304.916 86.1861C305.221 85.7354 305.374 85.1611 305.374 84.4633ZM315.989 89.0283V77.863H317.704V89.0283H315.989ZM316.861 76.0021C316.526 76.0021 316.238 75.8882 315.996 75.6604C315.758 75.4326 315.64 75.1588 315.64 74.839C315.64 74.5192 315.758 74.2454 315.996 74.0176C316.238 73.7898 316.526 73.6759 316.861 73.6759C317.195 73.6759 317.481 73.7898 317.719 74.0176C317.961 74.2454 318.082 74.5192 318.082 74.839C318.082 75.1588 317.961 75.4326 317.719 75.6604C317.481 75.8882 317.195 76.0021 316.861 76.0021ZM322.562 82.3117V89.0283H320.846V77.863H322.504V79.6075H322.649C322.911 79.0406 323.308 78.585 323.841 78.2409C324.374 77.892 325.062 77.7176 325.905 77.7176C326.661 77.7176 327.323 77.8726 327.89 78.1828C328.457 78.4881 328.898 78.9533 329.213 79.5785C329.528 80.1988 329.685 80.9838 329.685 81.9337V89.0283H327.97V82.05C327.97 81.1728 327.742 80.4895 327.287 80.0001C326.831 79.5058 326.206 79.2586 325.411 79.2586C324.864 79.2586 324.374 79.3774 323.943 79.6148C323.516 79.8523 323.18 80.1988 322.932 80.6543C322.685 81.1098 322.562 81.6623 322.562 82.3117ZM346.486 80.3635L344.945 80.7997C344.848 80.5428 344.705 80.2933 344.516 80.051C344.332 79.8038 344.08 79.6003 343.76 79.4404C343.44 79.2804 343.031 79.2005 342.532 79.2005C341.848 79.2005 341.279 79.358 340.824 79.673C340.373 79.9831 340.147 80.3781 340.147 80.8578C340.147 81.2843 340.303 81.6211 340.613 81.8682C340.923 82.1154 341.407 82.3213 342.067 82.4861L343.724 82.8932C344.722 83.1355 345.466 83.5062 345.956 84.0054C346.445 84.4997 346.69 85.1369 346.69 85.9171C346.69 86.5568 346.506 87.1287 346.137 87.6326C345.774 88.1366 345.265 88.534 344.611 88.8248C343.956 89.1155 343.196 89.2609 342.328 89.2609C341.189 89.2609 340.247 89.0138 339.501 88.5195C338.754 88.0252 338.282 87.3031 338.083 86.3533L339.711 85.9462C339.866 86.5471 340.16 86.9978 340.591 87.2983C341.027 87.5987 341.596 87.749 342.299 87.749C343.099 87.749 343.734 87.5793 344.204 87.2401C344.679 86.896 344.916 86.4841 344.916 86.0044C344.916 85.6167 344.78 85.292 344.509 85.0303C344.238 84.7638 343.821 84.5651 343.259 84.4342L341.398 83.9981C340.375 83.7558 339.624 83.3802 339.144 82.8714C338.669 82.3577 338.432 81.7156 338.432 80.9451C338.432 80.3151 338.609 79.7578 338.963 79.2732C339.321 78.7886 339.808 78.4081 340.424 78.1319C341.044 77.8557 341.747 77.7176 342.532 77.7176C343.637 77.7176 344.504 77.9599 345.134 78.4445C345.769 78.9291 346.22 79.5688 346.486 80.3635ZM352.558 89.29C351.85 89.29 351.208 89.1567 350.631 88.8902C350.055 88.6188 349.597 88.2287 349.257 87.7199C348.918 87.2062 348.749 86.5859 348.749 85.859C348.749 85.2193 348.875 84.7008 349.127 84.3034C349.379 83.9012 349.715 83.5862 350.137 83.3584C350.559 83.1306 351.024 82.961 351.533 82.8496C352.046 82.7333 352.563 82.6412 353.081 82.5733C353.76 82.4861 354.31 82.4207 354.731 82.3771C355.158 82.3286 355.468 82.2487 355.662 82.1372C355.86 82.0257 355.96 81.8319 355.96 81.5557V81.4975C355.96 80.7803 355.763 80.223 355.371 79.8256C354.983 79.4282 354.394 79.2295 353.604 79.2295C352.785 79.2295 352.143 79.4089 351.678 79.7675C351.213 80.1261 350.886 80.5089 350.697 80.916L349.068 80.3345C349.359 79.656 349.747 79.1278 350.232 78.7498C350.721 78.3669 351.254 78.1004 351.831 77.9502C352.412 77.7951 352.984 77.7176 353.546 77.7176C353.905 77.7176 354.317 77.7612 354.782 77.8484C355.252 77.9308 355.705 78.1028 356.141 78.3645C356.582 78.6262 356.948 79.0212 357.239 79.5494C357.53 80.0776 357.675 80.7851 357.675 81.672V89.0283H355.96V87.5163H355.872C355.756 87.7586 355.562 88.0179 355.291 88.2941C355.019 88.5704 354.658 88.8054 354.208 88.9992C353.757 89.1931 353.207 89.29 352.558 89.29ZM352.819 87.749C353.498 87.749 354.07 87.6157 354.535 87.3492C355.005 87.0826 355.359 86.7385 355.596 86.3169C355.838 85.8953 355.96 85.4519 355.96 84.9867V83.4166C355.887 83.5038 355.727 83.5838 355.48 83.6564C355.238 83.7243 354.956 83.7849 354.637 83.8382C354.322 83.8866 354.014 83.9302 353.713 83.969C353.418 84.0029 353.178 84.032 352.994 84.0562C352.548 84.1144 352.131 84.2089 351.744 84.3397C351.361 84.4657 351.051 84.6572 350.813 84.914C350.58 85.166 350.464 85.5101 350.464 85.9462C350.464 86.5423 350.685 86.993 351.126 87.2983C351.571 87.5987 352.136 87.749 352.819 87.749ZM369.537 77.863L365.408 89.0283H363.663L359.534 77.863H361.395L364.477 86.7604H364.594L367.676 77.863H369.537ZM371.801 89.0283V77.863H373.516V89.0283H371.801ZM372.673 76.0021C372.339 76.0021 372.05 75.8882 371.808 75.6604C371.571 75.4326 371.452 75.1588 371.452 74.839C371.452 74.5192 371.571 74.2454 371.808 74.0176C372.05 73.7898 372.339 73.6759 372.673 73.6759C373.008 73.6759 373.293 73.7898 373.531 74.0176C373.773 74.2454 373.894 74.5192 373.894 74.839C373.894 75.1588 373.773 75.4326 373.531 75.6604C373.293 75.8882 373.008 76.0021 372.673 76.0021ZM378.374 82.3117V89.0283H376.658V77.863H378.316V79.6075H378.461C378.723 79.0406 379.12 78.585 379.653 78.2409C380.186 77.892 380.875 77.7176 381.718 77.7176C382.474 77.7176 383.135 77.8726 383.702 78.1828C384.269 78.4881 384.71 78.9533 385.025 79.5785C385.34 80.1988 385.498 80.9838 385.498 81.9337V89.0283H383.782V82.05C383.782 81.1728 383.554 80.4895 383.099 80.0001C382.643 79.5058 382.018 79.2586 381.223 79.2586C380.676 79.2586 380.186 79.3774 379.755 79.6148C379.329 79.8523 378.992 80.1988 378.745 80.6543C378.498 81.1098 378.374 81.6623 378.374 82.3117ZM393.139 93.4479C392.311 93.4479 391.598 93.3413 391.002 93.1281C390.406 92.9197 389.909 92.6435 389.512 92.2994C389.12 91.9602 388.807 91.5967 388.574 91.2091L389.941 90.2495C390.096 90.4531 390.292 90.6857 390.53 90.9474C390.767 91.2139 391.092 91.4441 391.504 91.6379C391.921 91.8366 392.466 91.936 393.139 91.936C394.041 91.936 394.785 91.7179 395.371 91.2817C395.957 90.8456 396.251 90.1623 396.251 89.2319V86.9639H396.105C395.979 87.1674 395.8 87.4194 395.567 87.7199C395.339 88.0155 395.01 88.2796 394.579 88.5122C394.152 88.74 393.575 88.8539 392.849 88.8539C391.947 88.8539 391.138 88.6406 390.421 88.2142C389.708 87.7877 389.144 87.1674 388.727 86.3533C388.315 85.5391 388.109 84.5505 388.109 83.3875C388.109 82.2438 388.31 81.2479 388.712 80.3999C389.115 79.547 389.674 78.8879 390.392 78.4227C391.109 77.9526 391.938 77.7176 392.878 77.7176C393.605 77.7176 394.181 77.8387 394.608 78.081C395.039 78.3185 395.369 78.5899 395.596 78.8952C395.829 79.1956 396.008 79.4428 396.134 79.6366H396.309V77.863H397.966V89.3482C397.966 90.3077 397.748 91.0879 397.312 91.6888C396.881 92.2946 396.299 92.738 395.567 93.0191C394.84 93.305 394.031 93.4479 393.139 93.4479ZM393.081 87.3128C393.769 87.3128 394.351 87.1553 394.826 86.8403C395.301 86.5253 395.662 86.0722 395.909 85.481C396.156 84.8898 396.28 84.1822 396.28 83.3584C396.28 82.554 396.158 81.844 395.916 81.2286C395.674 80.6131 395.315 80.1309 394.84 79.782C394.365 79.4331 393.779 79.2586 393.081 79.2586C392.354 79.2586 391.749 79.4428 391.264 79.8111C390.784 80.1794 390.423 80.6737 390.181 81.294C389.943 81.9143 389.825 82.6024 389.825 83.3584C389.825 84.1338 389.946 84.8195 390.188 85.4156C390.435 86.0068 390.799 86.472 391.278 86.8112C391.763 87.1456 392.364 87.3128 393.081 87.3128ZM411.719 77.863V79.3168H405.933V77.863H411.719ZM407.619 75.1879H409.335V85.8299C409.335 86.3145 409.405 86.678 409.546 86.9203C409.691 87.1577 409.875 87.3177 410.098 87.4C410.326 87.4776 410.566 87.5163 410.818 87.5163C411.007 87.5163 411.162 87.5067 411.283 87.4873C411.404 87.463 411.501 87.4437 411.574 87.4291L411.923 88.9702C411.806 89.0138 411.644 89.0574 411.436 89.101C411.227 89.1495 410.963 89.1737 410.643 89.1737C410.159 89.1737 409.684 89.0695 409.219 88.8611C408.758 88.6527 408.375 88.3353 408.07 87.9089C407.77 87.4824 407.619 86.9445 407.619 86.2951V75.1879ZM416.255 82.3117V89.0283H414.54V74.1412H416.255V79.6075H416.401C416.662 79.0309 417.055 78.5729 417.578 78.2337C418.106 77.8896 418.809 77.7176 419.686 77.7176C420.447 77.7176 421.113 77.8702 421.685 78.1755C422.257 78.476 422.7 78.9388 423.015 79.5639C423.335 80.1842 423.495 80.9741 423.495 81.9337V89.0283H421.78V82.05C421.78 81.1631 421.549 80.4774 421.089 79.9928C420.634 79.5034 420.001 79.2586 419.192 79.2586C418.63 79.2586 418.126 79.3774 417.68 79.6148C417.239 79.8523 416.89 80.1988 416.633 80.6543C416.381 81.1098 416.255 81.6623 416.255 82.3117ZM431.315 89.2609C430.239 89.2609 429.311 89.0235 428.531 88.5486C427.756 88.0688 427.157 87.4 426.735 86.5423C426.319 85.6797 426.11 84.6765 426.11 83.5329C426.11 82.3892 426.319 81.3812 426.735 80.5089C427.157 79.6318 427.743 78.9485 428.495 78.459C429.251 77.9647 430.133 77.7176 431.14 77.7176C431.722 77.7176 432.296 77.8145 432.863 78.0083C433.43 78.2022 433.946 78.5172 434.412 78.9533C434.877 79.3846 435.248 79.9565 435.524 80.6688C435.8 81.3812 435.938 82.2583 435.938 83.3003V84.0272H427.331V82.5443H434.194C434.194 81.9143 434.068 81.3521 433.816 80.8578C433.568 80.3635 433.215 79.9734 432.754 79.6875C432.299 79.4016 431.761 79.2586 431.14 79.2586C430.457 79.2586 429.866 79.4282 429.367 79.7675C428.873 80.1018 428.492 80.538 428.226 81.0759C427.959 81.6138 427.826 82.1905 427.826 82.806V83.7946C427.826 84.6378 427.971 85.3526 428.262 85.9389C428.558 86.5205 428.967 86.9639 429.49 87.2692C430.014 87.5697 430.622 87.7199 431.315 87.7199C431.766 87.7199 432.173 87.6569 432.536 87.5309C432.904 87.4 433.222 87.2062 433.488 86.9494C433.755 86.6877 433.961 86.363 434.106 85.9753L435.764 86.4405C435.589 87.0027 435.296 87.497 434.884 87.9234C434.472 88.345 433.963 88.6746 433.358 88.912C432.752 89.1446 432.071 89.2609 431.315 89.2609ZM154.632 115.261C153.556 115.261 152.628 115.023 151.848 114.549C151.073 114.069 150.474 113.4 150.053 112.542C149.636 111.68 149.428 110.677 149.428 109.533C149.428 108.389 149.636 107.381 150.053 106.509C150.474 105.632 151.061 104.948 151.812 104.459C152.568 103.965 153.45 103.718 154.458 103.718C155.039 103.718 155.614 103.814 156.181 104.008C156.748 104.202 157.264 104.517 157.729 104.953C158.194 105.385 158.565 105.956 158.841 106.669C159.117 107.381 159.255 108.258 159.255 109.3V110.027H150.649V108.544H157.511C157.511 107.914 157.385 107.352 157.133 106.858C156.886 106.364 156.532 105.973 156.072 105.688C155.616 105.402 155.078 105.259 154.458 105.259C153.775 105.259 153.183 105.428 152.684 105.767C152.19 106.102 151.809 106.538 151.543 107.076C151.276 107.614 151.143 108.191 151.143 108.806V109.795C151.143 110.638 151.289 111.353 151.579 111.939C151.875 112.52 152.284 112.964 152.808 113.269C153.331 113.57 153.939 113.72 154.632 113.72C155.083 113.72 155.49 113.657 155.854 113.531C156.222 113.4 156.539 113.206 156.806 112.949C157.072 112.688 157.278 112.363 157.424 111.975L159.081 112.441C158.907 113.003 158.613 113.497 158.201 113.923C157.79 114.345 157.281 114.675 156.675 114.912C156.069 115.145 155.388 115.261 154.632 115.261ZM163.581 108.312V115.028H161.865V103.863H163.522V105.608H163.668C163.93 105.041 164.327 104.585 164.86 104.241C165.393 103.892 166.081 103.718 166.924 103.718C167.68 103.718 168.342 103.873 168.909 104.183C169.476 104.488 169.917 104.953 170.232 105.578C170.547 106.199 170.704 106.984 170.704 107.934V115.028H168.989V108.05C168.989 107.173 168.761 106.49 168.306 106C167.85 105.506 167.225 105.259 166.43 105.259C165.882 105.259 165.393 105.377 164.962 105.615C164.535 105.852 164.198 106.199 163.951 106.654C163.704 107.11 163.581 107.662 163.581 108.312ZM182.569 103.863L178.44 115.028H176.696L172.567 103.863H174.428L177.51 112.76H177.626L180.708 103.863H182.569ZM184.834 115.028V103.863H186.549V115.028H184.834ZM185.706 102.002C185.372 102.002 185.083 101.888 184.841 101.66C184.603 101.433 184.485 101.159 184.485 100.839C184.485 100.519 184.603 100.245 184.841 100.018C185.083 99.7898 185.372 99.6759 185.706 99.6759C186.04 99.6759 186.326 99.7898 186.564 100.018C186.806 100.245 186.927 100.519 186.927 100.839C186.927 101.159 186.806 101.433 186.564 101.66C186.326 101.888 186.04 102.002 185.706 102.002ZM189.691 115.028V103.863H191.349V105.549H191.465C191.668 104.997 192.037 104.549 192.57 104.205C193.103 103.861 193.704 103.688 194.373 103.688C194.499 103.688 194.656 103.691 194.845 103.696C195.034 103.701 195.177 103.708 195.274 103.718V105.462C195.216 105.448 195.083 105.426 194.874 105.397C194.671 105.363 194.455 105.346 194.227 105.346C193.684 105.346 193.2 105.46 192.773 105.688C192.352 105.91 192.017 106.221 191.77 106.618C191.528 107.01 191.407 107.459 191.407 107.963V115.028H189.691ZM201.504 115.261C200.496 115.261 199.611 115.021 198.85 114.541C198.094 114.062 197.503 113.39 197.077 112.528C196.655 111.665 196.444 110.657 196.444 109.504C196.444 108.341 196.655 107.325 197.077 106.458C197.503 105.591 198.094 104.917 198.85 104.437C199.611 103.957 200.496 103.718 201.504 103.718C202.512 103.718 203.394 103.957 204.15 104.437C204.91 104.917 205.502 105.591 205.923 106.458C206.35 107.325 206.563 108.341 206.563 109.504C206.563 110.657 206.35 111.665 205.923 112.528C205.502 113.39 204.91 114.062 204.15 114.541C203.394 115.021 202.512 115.261 201.504 115.261ZM201.504 113.72C202.269 113.72 202.899 113.524 203.394 113.131C203.888 112.739 204.254 112.222 204.491 111.583C204.729 110.943 204.847 110.25 204.847 109.504C204.847 108.757 204.729 108.062 204.491 107.418C204.254 106.773 203.888 106.252 203.394 105.855C202.899 105.457 202.269 105.259 201.504 105.259C200.738 105.259 200.108 105.457 199.614 105.855C199.119 106.252 198.753 106.773 198.516 107.418C198.279 108.062 198.16 108.757 198.16 109.504C198.16 110.25 198.279 110.943 198.516 111.583C198.753 112.222 199.119 112.739 199.614 113.131C200.108 113.524 200.738 113.72 201.504 113.72ZM210.897 108.312V115.028H209.182V103.863H210.839V105.608H210.984C211.246 105.041 211.643 104.585 212.176 104.241C212.71 103.892 213.398 103.718 214.241 103.718C214.997 103.718 215.658 103.873 216.225 104.183C216.792 104.488 217.233 104.953 217.548 105.578C217.863 106.199 218.021 106.984 218.021 107.934V115.028H216.305V108.05C216.305 107.173 216.078 106.49 215.622 106C215.166 105.506 214.541 105.259 213.747 105.259C213.199 105.259 212.71 105.377 212.278 105.615C211.852 105.852 211.515 106.199 211.268 106.654C211.021 107.11 210.897 107.662 210.897 108.312ZM221.156 115.028V103.863H222.813V105.608H222.958C223.191 105.011 223.567 104.549 224.085 104.219C224.604 103.885 225.226 103.718 225.953 103.718C226.69 103.718 227.303 103.885 227.792 104.219C228.287 104.549 228.672 105.011 228.948 105.608H229.064C229.35 105.031 229.779 104.573 230.351 104.234C230.923 103.89 231.609 103.718 232.408 103.718C233.407 103.718 234.223 104.03 234.858 104.655C235.493 105.276 235.81 106.242 235.81 107.556V115.028H234.095V107.556C234.095 106.732 233.869 106.143 233.419 105.789C232.968 105.436 232.437 105.259 231.827 105.259C231.042 105.259 230.433 105.496 230.002 105.971C229.571 106.441 229.355 107.037 229.355 107.759V115.028H227.611V107.381C227.611 106.746 227.405 106.235 226.993 105.847C226.581 105.455 226.05 105.259 225.401 105.259C224.955 105.259 224.538 105.377 224.151 105.615C223.768 105.852 223.458 106.182 223.22 106.603C222.987 107.02 222.871 107.502 222.871 108.05V115.028H221.156ZM243.628 115.261C242.552 115.261 241.624 115.023 240.844 114.549C240.069 114.069 239.47 113.4 239.049 112.542C238.632 111.68 238.423 110.677 238.423 109.533C238.423 108.389 238.632 107.381 239.049 106.509C239.47 105.632 240.057 104.948 240.808 104.459C241.564 103.965 242.446 103.718 243.454 103.718C244.035 103.718 244.609 103.814 245.176 104.008C245.743 104.202 246.26 104.517 246.725 104.953C247.19 105.385 247.561 105.956 247.837 106.669C248.113 107.381 248.251 108.258 248.251 109.3V110.027H239.645V108.544H246.507C246.507 107.914 246.381 107.352 246.129 106.858C245.882 106.364 245.528 105.973 245.067 105.688C244.612 105.402 244.074 105.259 243.454 105.259C242.77 105.259 242.179 105.428 241.68 105.767C241.186 106.102 240.805 106.538 240.539 107.076C240.272 107.614 240.139 108.191 240.139 108.806V109.795C240.139 110.638 240.284 111.353 240.575 111.939C240.871 112.52 241.28 112.964 241.804 113.269C242.327 113.57 242.935 113.72 243.628 113.72C244.079 113.72 244.486 113.657 244.849 113.531C245.218 113.4 245.535 113.206 245.802 112.949C246.068 112.688 246.274 112.363 246.419 111.975L248.077 112.441C247.902 113.003 247.609 113.497 247.197 113.923C246.785 114.345 246.277 114.675 245.671 114.912C245.065 115.145 244.384 115.261 243.628 115.261ZM252.576 108.312V115.028H250.861V103.863H252.518V105.608H252.664C252.925 105.041 253.323 104.585 253.856 104.241C254.389 103.892 255.077 103.718 255.92 103.718C256.676 103.718 257.338 103.873 257.905 104.183C258.472 104.488 258.913 104.953 259.228 105.578C259.543 106.199 259.7 106.984 259.7 107.934V115.028H257.985V108.05C257.985 107.173 257.757 106.49 257.301 106C256.846 105.506 256.221 105.259 255.426 105.259C254.878 105.259 254.389 105.377 253.958 105.615C253.531 105.852 253.194 106.199 252.947 106.654C252.7 107.11 252.576 107.662 252.576 108.312ZM267.691 103.863V105.317H261.904V103.863H267.691ZM263.591 101.188H265.306V111.83C265.306 112.315 265.377 112.678 265.517 112.92C265.663 113.158 265.847 113.318 266.07 113.4C266.297 113.478 266.537 113.516 266.789 113.516C266.978 113.516 267.133 113.507 267.255 113.487C267.376 113.463 267.473 113.444 267.545 113.429L267.894 114.97C267.778 115.014 267.616 115.057 267.407 115.101C267.199 115.149 266.935 115.174 266.615 115.174C266.13 115.174 265.655 115.07 265.19 114.861C264.73 114.653 264.347 114.335 264.042 113.909C263.741 113.482 263.591 112.945 263.591 112.295V101.188Z" fill="#28554A"/>
<path d="M91.3236 43.5388C91.4107 43.6111 91.4107 43.6111 91.4996 43.6848C92.7624 44.7338 92.7624 44.7338 93.3246 45.3105C93.4918 45.4755 93.6679 45.6223 93.8496 45.7716C94.5368 46.3581 95.1369 47.0364 95.7458 47.6999C95.8022 47.7612 95.8586 47.8224 95.9167 47.8856C97.3038 49.4015 98.5506 51.0464 99.6538 52.7743C99.6999 52.8463 99.7461 52.9184 99.7936 52.9926C104.89 61.007 107.149 70.6801 105.824 80.0748C105.808 80.1932 105.791 80.3117 105.774 80.4337C104.636 88.2477 101.263 95.6719 95.9515 101.59C95.8735 101.678 95.7956 101.765 95.7153 101.854C95.4873 102.106 95.257 102.356 95.0259 102.605C94.9743 102.661 94.9227 102.717 94.8695 102.775C93.6893 104.056 93.6893 104.056 93.0856 104.552C92.8522 104.748 92.6294 104.955 92.4063 105.162C91.7271 105.793 91.0203 106.372 90.2782 106.929C90.0863 107.073 89.8956 107.219 89.705 107.365C81.3942 113.678 70.4772 116.518 60.079 115.291C56.8655 114.87 56.8655 114.87 55.7404 114.479C55.9039 114.082 56.181 113.814 56.485 113.517C56.5399 113.463 56.5948 113.408 56.6513 113.352C56.8327 113.173 57.0148 112.994 57.197 112.816C57.3239 112.691 57.4508 112.565 57.5776 112.44C57.8437 112.178 58.1102 111.916 58.3769 111.654C58.717 111.32 59.0564 110.985 59.3956 110.651C59.6578 110.392 59.9202 110.133 60.1828 109.875C60.3079 109.752 60.4329 109.629 60.5579 109.505C61.6544 108.425 61.6544 108.425 62.1137 108.038C62.6772 107.563 63.1914 107.036 63.7135 106.517C63.9105 106.322 64.1079 106.126 64.3053 105.931C64.7244 105.516 65.1431 105.101 65.5617 104.686C66.0474 104.204 66.5332 103.723 67.0194 103.242C67.2126 103.05 67.4055 102.859 67.5983 102.667C68.1213 102.149 68.6437 101.641 69.2082 101.166C69.6473 100.78 70.0566 100.362 70.4705 99.9507C70.6434 99.7789 70.8165 99.6073 70.9898 99.4358C71.3576 99.0718 71.7249 98.7073 72.0922 98.3428C72.5183 97.9198 72.9447 97.497 73.3714 97.0747C73.5407 96.907 73.7097 96.739 73.8786 96.571C74.3665 96.0872 74.8587 95.6164 75.3846 95.1725C75.8165 94.7941 76.2164 94.3822 76.622 93.9768C76.719 93.8804 76.816 93.7841 76.913 93.6878C77.3211 93.2825 77.7287 92.8767 78.1358 92.4704C78.3378 92.2689 78.5401 92.0676 78.7426 91.8667C78.9326 91.6781 79.1222 91.4892 79.3113 91.2998C79.44 91.1722 79.44 91.1722 79.5714 91.042C79.6466 90.9671 79.7217 90.8921 79.7992 90.8149C80 90.6393 80.1772 90.5308 80.4224 90.4267C80.514 90.8048 80.53 91.1338 80.507 91.5214C80.4971 91.6974 80.4971 91.6974 80.4869 91.877C80.4751 92.0688 80.4751 92.0688 80.463 92.2645C80.455 92.4012 80.4471 92.5379 80.4392 92.6747C80.4177 93.0455 80.3954 93.4162 80.3729 93.7869C80.3494 94.1755 80.3267 94.5642 80.3039 94.9528C80.2654 95.6058 80.2264 96.2587 80.1871 96.9116C80.1418 97.6651 80.097 98.4186 80.0527 99.1721C80.0054 99.9758 79.9577 100.779 79.9099 101.583C79.8961 101.814 79.8825 102.045 79.8689 102.275C79.8473 102.639 79.8255 103.003 79.8035 103.367C79.7917 103.563 79.7802 103.759 79.7686 103.955C79.7388 104.444 79.7086 104.93 79.6427 105.415C79.6049 105.71 79.5982 105.883 79.7025 106.157C82.9938 104.777 86.3012 103.258 89.0611 100.981C89.1214 100.932 89.1816 100.883 89.2438 100.832C90.3633 99.9166 91.4101 98.9583 92.3167 97.8306C92.4833 97.6234 92.6513 97.4202 92.8244 97.2185C98.7597 90.2235 101.534 80.8025 100.809 71.7603C100.121 64.4133 97.2038 57.2177 92.2492 51.6579C92.1839 51.5835 92.1187 51.5091 92.0515 51.4324C91.8788 51.2357 91.7043 51.0407 91.5293 50.846C91.4601 50.7683 91.3909 50.6906 91.3196 50.6105C90.4856 49.6829 89.6092 48.8058 88.6497 48.0043C88.5097 47.8831 88.5097 47.8831 88.3669 47.7593C87.4444 46.9655 86.4649 46.2594 85.4616 45.5686C85.3951 45.5227 85.3285 45.4767 85.2599 45.4294C84.1988 44.702 83.0918 44.0601 81.965 43.4373C81.8932 43.3972 81.8214 43.357 81.7474 43.3156C77.8146 41.1262 73.4466 40.0691 69.0069 39.4793C68.9052 39.4657 68.8034 39.452 68.6986 39.438C59.5324 38.2771 50.2932 41.0934 43.0201 46.5898C42.1061 47.2878 41.2224 48.0089 40.3719 48.7814C40.1437 48.9874 39.9123 49.1882 39.6778 49.3871C38.9747 49.9935 38.3616 50.6453 37.7776 51.3642C37.5398 51.6549 37.2949 51.9385 37.0489 52.2225C32.526 57.5785 30.4129 63.9347 28.8987 70.6363C28.5288 70.527 28.2353 70.4371 27.9542 70.1721C27.8722 70.0962 27.8722 70.0962 27.7886 70.0187C27.7328 69.965 27.677 69.9114 27.6196 69.8561C27.5607 69.8009 27.5019 69.7456 27.4413 69.6887C27.3257 69.5797 27.2106 69.4704 27.096 69.3605C26.9752 69.2448 26.8531 69.1304 26.7305 69.0165C26.2898 68.5989 25.9091 68.1369 25.5266 67.6674C25.3002 67.378 25.3002 67.378 25.0067 67.11C24.7363 66.7072 24.7537 66.5465 24.8389 66.0873C24.8593 65.9976 24.8797 65.908 24.9007 65.8156C24.9207 65.7194 24.9407 65.6232 24.9613 65.5241C26.2433 59.6839 29.0393 54.1813 32.8066 49.5267C32.872 49.4454 32.872 49.4454 32.9387 49.3625C33.4115 48.7757 33.9051 48.2107 34.4176 47.6575C34.6112 47.4462 34.8001 47.2323 34.9884 47.0164C35.4049 46.5458 35.8481 46.1043 36.2968 45.6638C36.375 45.5862 36.4531 45.5087 36.5337 45.4289C37.0228 44.947 37.5248 44.4878 38.0516 44.0463C38.1176 43.9906 38.1836 43.935 38.2516 43.8776C39.3085 42.9919 40.3981 42.1717 41.5482 41.4076C41.6192 41.3604 41.6902 41.3132 41.7634 41.2646C47.3159 37.6005 53.5242 35.188 60.1625 34.4048C60.2534 34.3931 60.3443 34.3814 60.4379 34.3693C71.0443 33.0219 82.1749 36.3653 91.3236 43.5388Z" fill="#7BB5CD"/>
<path d="M58.977 8.19589C59.2643 7.91346 59.4895 7.67789 59.6477 7.30735C55.3788 5.9031 49.8992 6.04227 45.4993 6.64762L45.147 6.69842C40.1726 7.40339 35.1731 8.92856 30.8084 11.4176L30.5435 11.5699C27.7294 13.1771 24.9165 14.9698 22.534 17.1679C22.3227 17.3636 22.1111 17.5572 21.8907 17.7429C21.3651 18.1774 20.9069 18.663 20.4493 19.1653C20.352 19.2724 20.2543 19.3793 20.1565 19.486C19.3446 20.343 18.5765 21.2214 17.8379 22.141L17.6883 22.3277C11.3759 30.1601 8.43979 40.3851 9.23769 50.3301L9.25526 50.5416C9.87978 58.5184 13.0629 66.771 18.4259 72.8401C18.5237 72.9505 18.6205 73.0618 18.7167 73.1736C19.2709 73.8573 19.8373 74.5062 20.4654 75.1253C20.6121 75.268 20.7587 75.4107 20.9049 75.5537C21.5458 76.1812 22.1892 76.8053 22.8617 77.4L23.1389 77.6391C30.2587 83.7983 39.2822 87.1511 48.7052 87.5707L49.055 87.585C60.014 87.3996 69.1976 84.092 76.7283 77.8046L76.9251 77.6391C77.4438 77.2043 77.939 76.7528 78.4209 76.2786L78.6541 76.047C79.2713 75.4353 79.8816 74.8202 80.4667 74.1785L80.7303 73.884C83.1956 71.1419 85.3398 68.081 86.8803 64.7377C86.9941 64.4879 87.1084 64.2385 87.2259 63.9904C88.4933 61.3185 89.6202 58.3148 89.9989 55.375C90.0186 54.9002 89.9694 54.6291 89.6458 54.2748L89.4718 54.0937C89.0249 53.5108 88.5754 52.9833 88.0193 52.5009L87.8328 52.343C87.4992 52.0601 87.1776 51.8002 86.7963 51.5818L84.5784 57.1661L84.4697 57.5168L84.349 57.8868C82.9751 62.1546 80.8697 66.4423 77.8852 69.8546C77.7219 70.0411 77.5618 70.2305 77.4048 70.4223C77.0018 70.919 76.5938 71.3959 76.1309 71.8391L75.8967 72.0572C74.7991 73.0828 73.6639 74.0624 72.4768 74.9865L72.1944 75.2033C68.8828 77.7715 65.0994 79.7237 61.0875 80.9882C51.9369 83.7337 41.96 83.0309 33.4624 78.5805L33.2174 78.451C30.8256 77.194 28.5625 75.7158 26.5275 73.9462C26.3468 73.7882 26.1652 73.6311 25.9819 73.476C25.3593 72.9496 24.7762 72.3888 24.238 71.7781C24.0274 71.5361 23.8139 71.2987 23.5949 71.0641C22.6671 70.0777 21.8028 69.0513 20.9996 67.9624L20.8764 67.7947C19.5519 65.9999 18.4008 64.0786 17.4881 62.0484L17.3798 61.8068C14.7395 56.0297 13.5144 49.4183 14.3604 43.096L14.3974 42.8284C15.2977 35.9705 18.0804 29.5311 22.5857 24.2194L22.7275 24.053C23.9286 22.64 25.3376 21.3967 26.7796 20.2276L26.944 20.0949C29.321 18.1744 32.492 16.1483 35.5827 15.7309C35.5918 17.1764 35.5755 18.6198 35.5357 20.0648C35.5253 20.4308 35.5149 20.7967 35.5049 21.1627C35.4872 21.8195 35.4692 22.4762 35.4509 23.133C35.4212 24.2006 35.3915 25.2683 35.3625 26.336C35.3523 26.712 35.342 27.0879 35.3314 27.4638C35.2937 28.7968 35.2631 30.1282 35.2742 31.4617C35.5827 31.3602 35.5827 31.3602 35.797 31.174L36.0484 30.9258C36.1969 30.7799 36.3453 30.634 36.4931 30.4874C36.6016 30.3797 36.7103 30.2722 36.8191 30.1649C37.1156 29.873 37.4118 29.5808 37.7075 29.288C38.0225 28.976 38.338 28.6644 38.6536 28.3529C39.1826 27.831 39.7112 27.3088 40.2394 26.7862C40.8538 26.1783 41.4684 25.5707 42.0836 24.9636C42.7437 24.3123 43.4035 23.6607 44.0631 23.0089L44.6302 22.4487C44.9327 22.1501 45.2351 21.8514 45.5372 21.5524L45.8734 21.2196C46.3178 20.7813 46.7695 20.3488 47.187 19.8854C47.6691 19.3302 48.1829 18.8116 48.7083 18.2965C48.82 18.1869 48.9316 18.0773 49.0432 17.9676C49.285 17.7295 49.5269 17.4914 49.769 17.2536C50.1568 16.8728 50.5443 16.4918 50.9316 16.1105C52.0359 15.023 53.1408 13.936 54.2463 12.8496C54.8645 12.242 55.4826 11.6342 56.1001 11.0259C56.4901 10.6416 56.8802 10.2575 57.2711 9.87407C57.5179 9.63191 57.7645 9.38949 58.0108 9.14676L58.3539 8.80857L58.356 8.80651C58.5152 8.6507 58.6745 8.4949 58.833 8.33837L58.977 8.19589Z" fill="#ADC483"/>
</svg>
